<svg width="25" height="24" fill="none" xmlns="http://www.w3.org/2000/svg"><path d="M3.5 7.8c0-1.68 0-2.52.327-3.162a3 3 0 011.311-1.311C5.78 3 6.62 3 8.3 3h8.4c1.68 0 2.52 0 3.162.327a3 3 0 011.311 1.311c.327.642.327 1.482.327 3.162v5.7c0 1.398 0 2.097-.228 2.648a3 3 0 01-1.624 1.624C19.097 18 18.398 18 17 18c-.489 0-.733 0-.96.053a2 2 0 00-.821.412c-.18.149-.326.344-.619.735l-1.46 1.947c-.217.29-.326.434-.459.486a.5.5 0 01-.362 0c-.133-.052-.242-.197-.459-.486L10.4 19.2c-.293-.39-.44-.586-.619-.735a2 2 0 00-.821-.412C8.733 18 8.489 18 8 18c-1.398 0-2.097 0-2.648-.228a3 3 0 01-1.624-1.624C3.5 15.597 3.5 14.898 3.5 13.5V7.8z" stroke="#292929" stroke-width="2" stroke-linecap="round" stroke-linejoin="round"/></svg>