<svg width="49" height="49" fill="none" xmlns="http://www.w3.org/2000/svg"><rect x="8.5" y="8.5" width="32" height="32" rx="16" fill="#EE8208"/><path d="M24.5 17.06a2.282 2.282 0 012.28 2.28 2.282 2.282 0 01-2.28 2.278 2.282 2.282 0 01-2.28-2.278 2.282 2.282 0 012.28-2.28zm0 7.783a5.51 5.51 0 005.506-5.503 5.511 5.511 0 00-5.506-5.507 5.512 5.512 0 00-5.506 5.507 5.51 5.51 0 005.506 5.503zm2.227 4.491a10.308 10.308 0 003.197-1.323 1.613 1.613 0 00-1.718-2.731 6.992 6.992 0 01-7.412 0 1.612 1.612 0 10-1.719 2.73 10.317 10.317 0 003.197 1.324l-3.078 3.079a1.613 1.613 0 002.281 2.28L24.5 31.67l3.026 3.025a1.611 1.611 0 102.28-2.28l-3.078-3.08z" fill="#fff"/></svg>