<svg width="33" height="33" fill="none" xmlns="http://www.w3.org/2000/svg"><g clip-path="url(#clip0_214_2985)"><rect x=".5" y=".7" width="32" height="32" rx="16" fill="#F60"/><path d="M14.889 22.272c0 1.06-.872 1.922-1.945 1.922-1.072 0-1.944-.862-1.944-1.922s.872-1.921 1.944-1.921c1.073 0 1.945.862 1.945 1.921zm11.11 1.922c.03-4.42-2.037-8.798-5.502-11.593A14.987 14.987 0 0011 9.2v3.43c4.071-.047 8.083 2.143 10.174 5.602a11.383 11.383 0 011.697 5.956H26v.006zm-5.301 0c.017-2.841-1.35-5.636-3.582-7.418A9.717 9.717 0 0011 14.62v2.888c2.404-.029 4.76 1.334 5.91 3.424.56 1 .853 2.124.854 3.267h2.934v-.006z" fill="#fff"/></g><defs><clipPath id="clip0_214_2985"><path fill="#fff" transform="translate(.5 .7)" d="M0 0h32v32H0z"/></clipPath></defs></svg>