<svg width="49" height="49" fill="none" xmlns="http://www.w3.org/2000/svg"><rect x="8.5" y="8.7" width="32" height="32" rx="16" fill="#419FD9"/><path fill-rule="evenodd" clip-rule="evenodd" d="M28.057 32.623c1.118.49 1.537-.536 1.537-.536l2.96-14.865c-.024-1.002-1.375-.396-1.375-.396l-16.566 6.5s-.792.28-.722.77c.07.489.699.722.699.722l4.17 1.398s1.259 4.123 1.515 4.916c.233.769.443.792.443.792.233.093.442-.07.442-.07l2.703-2.446 4.194 3.215zm.722-12.768s.583-.35.56 0c0 0 .093.047-.21.373-.28.28-6.873 6.197-7.759 6.99a.245.245 0 00-.116.21l-.257 2.19c-.046.232-.35.256-.419.046l-1.095-3.588a.343.343 0 01.14-.396l9.156-5.825z" fill="#fff"/></svg>