<svg width="49" height="49" fill="none" xmlns="http://www.w3.org/2000/svg"><g id="Viber"><g id="Viber_2"><rect id="Rectangle" x="8.5" y="8.5" width="32" height="32" rx="16" fill="#675DA9"/><g id="Group" fill="#fff"><path id="Vector" d="M32.337 16.623c-.53-.487-2.672-2.045-7.448-2.066 0 0-5.63-.341-8.375 2.177-1.528 1.528-2.066 3.76-2.121 6.535-.056 2.77-.128 7.964 4.879 9.373h.004l-.004 2.147s-.03.87.542 1.045c.691.214 1.1-.448 1.762-1.16a64.12 64.12 0 001.242-1.405c3.424.286 6.057-.371 6.356-.47.691-.226 4.605-.725 5.241-5.92.658-5.343-.32-8.728-2.078-10.256zm.58 9.88c-.538 4.337-3.709 4.61-4.294 4.798-.247.082-2.56.658-5.472.466 0 0-2.168 2.616-2.842 3.295-.107.106-.23.15-.312.128-.115-.03-.15-.167-.145-.367 0-.29.017-3.573.017-3.573-.004 0-.004 0 0 0-4.238-1.174-3.99-5.595-3.944-7.909.047-2.313.483-4.213 1.776-5.489 2.317-2.1 7.102-1.788 7.102-1.788 4.038.017 5.971 1.233 6.42 1.639 1.49 1.28 2.249 4.332 1.694 8.8z"/><path id="Vector_2" d="M26.855 23.422a.27.27 0 01-.268-.256c-.047-.917-.479-1.366-1.358-1.413a.272.272 0 01.03-.542c1.161.064 1.81.73 1.87 1.925a.266.266 0 01-.257.282c-.008.004-.012.004-.017.004z"/><path id="Vector_3" d="M28.238 23.883h-.004a.271.271 0 01-.264-.277c.02-.922-.244-1.669-.807-2.284-.56-.614-1.332-.947-2.352-1.02a.269.269 0 01-.247-.29c.012-.15.14-.26.29-.247 1.152.085 2.061.486 2.71 1.195.653.712.969 1.604.948 2.659a.273.273 0 01-.274.264z"/><path id="Vector_4" d="M29.656 24.438a.268.268 0 01-.269-.269c-.013-1.652-.486-2.91-1.451-3.854-.952-.93-2.16-1.404-3.581-1.417a.271.271 0 010-.542c1.566.013 2.898.538 3.952 1.57 1.059 1.034 1.6 2.459 1.618 4.235a.267.267 0 01-.269.277c.004 0 .004 0 0 0z"/><path id="Vector_5" d="M25.294 26.764s.38.034.584-.217l.398-.5c.192-.247.657-.405 1.11-.153.251.14.708.422.99.631.302.222.917.734.921.739.295.247.363.61.163.998v.009a4.166 4.166 0 01-.829 1.02c-.004 0-.004.004-.008.004-.286.24-.568.376-.84.406-.035.008-.073.008-.125.008-.12 0-.239-.017-.358-.055l-.009-.013c-.427-.12-1.135-.418-2.313-1.071a13.741 13.741 0 01-1.946-1.285 9.96 9.96 0 01-.875-.777l-.03-.03-.03-.03-.03-.03-.03-.03c-.294-.298-.55-.588-.777-.874a13.49 13.49 0 01-1.284-1.947c-.653-1.182-.952-1.89-1.072-2.313l-.013-.009a1.163 1.163 0 01-.055-.358c0-.051 0-.09.009-.124.034-.277.17-.555.405-.84 0-.005.004-.005.004-.01.316-.35.657-.622 1.02-.827h.009c.384-.2.747-.133.999.162 0 0 .516.619.738.922.21.286.49.738.632.99.252.453.094.918-.154 1.11l-.5.397c-.251.205-.217.584-.217.584s.738 2.809 3.513 3.513z"/></g></g></g></svg>