<svg width="49" height="49" fill="none" xmlns="http://www.w3.org/2000/svg"><rect x="8.5" y="8.7" width="32" height="32" rx="16" fill="#5181B8"/><path fill-rule="evenodd" clip-rule="evenodd" d="M34.677 19.723c.149-.494 0-.858-.706-.858h-2.333c-.594 0-.867.314-1.016.66 0 0-1.186 2.893-2.868 4.772-.544.544-.791.717-1.088.717-.148 0-.363-.173-.363-.667v-4.624c0-.593-.172-.858-.667-.858H21.97c-.371 0-.594.276-.594.537 0 .562.84.692.927 2.274v3.437c0 .754-.136.89-.433.89-.79 0-2.715-2.905-3.857-6.23-.224-.647-.448-.908-1.044-.908h-2.334c-.667 0-.8.314-.8.66 0 .619.79 3.685 3.684 7.74 1.928 2.768 4.645 4.27 7.118 4.27 1.484 0 1.667-.334 1.667-.908v-2.093c0-.667.14-.8.61-.8.347 0 .94.173 2.325 1.508 1.582 1.583 1.843 2.293 2.733 2.293h2.334c.667 0 1-.334.808-.991-.21-.656-.966-1.608-1.969-2.736-.544-.642-1.36-1.335-1.607-1.68-.346-.446-.247-.644 0-1.04 0 0 2.844-4.005 3.14-5.365z" fill="#fff"/></svg>