<svg width="49" height="49" fill="none" xmlns="http://www.w3.org/2000/svg"><rect x="8.5" y="8.5" width="32" height="32" rx="16" fill="#0DC143"/><path d="M31.667 17.308c-1.715-1.766-4.087-2.725-6.508-2.725-5.146 0-9.283 4.188-9.232 9.283 0 1.614.454 3.178 1.21 4.591l-1.311 4.793 4.893-1.261c1.362.756 2.876 1.11 4.39 1.11 5.095 0 9.232-4.188 9.232-9.283 0-2.472-.959-4.793-2.674-6.508zm-6.508 14.227c-1.362 0-2.724-.354-3.885-1.06l-.303-.151-2.926.756.757-2.875-.202-.303c-2.22-3.582-1.16-8.324 2.472-10.544 3.633-2.22 8.325-1.16 10.545 2.472 2.22 3.633 1.16 8.324-2.473 10.544-1.16.757-2.572 1.16-3.985 1.16zm4.44-5.6l-.555-.253s-.808-.353-1.312-.605c-.05 0-.101-.05-.151-.05a.729.729 0 00-.354.1s-.05.05-.756.858a.277.277 0 01-.253.151h-.05a.382.382 0 01-.202-.1l-.252-.101c-.555-.253-1.06-.555-1.463-.959-.101-.1-.253-.202-.353-.303-.354-.353-.707-.756-.959-1.21l-.05-.101c-.05-.05-.05-.101-.101-.202 0-.101 0-.202.05-.252 0 0 .202-.253.353-.404.101-.1.152-.252.253-.353.1-.151.15-.353.1-.505-.05-.252-.655-1.614-.807-1.917-.1-.151-.201-.202-.353-.252h-.555c-.1 0-.202.05-.303.05l-.05.05c-.1.051-.202.152-.303.203-.1.1-.151.201-.252.302a2.572 2.572 0 00-.555 1.564c0 .404.101.807.252 1.16l.05.152a8.406 8.406 0 001.867 2.573l.202.202c.152.151.303.252.404.403a9.014 9.014 0 003.632 1.918c.152.05.354.05.505.1h.504c.253 0 .555-.1.757-.201.151-.101.252-.101.353-.202l.101-.101c.101-.101.202-.151.303-.252.1-.101.202-.202.252-.303.101-.202.151-.454.202-.706v-.354s-.05-.05-.151-.1z" fill="#fff"/></svg>