<svg width="49" height="49" fill="none" xmlns="http://www.w3.org/2000/svg"><g id="YouTube"><g id="YouTube_2"><rect id="Rectangle" x="9" y="9.2" width="32" height="32" rx="16" fill="red"/><path id="Exclude" fill-rule="evenodd" clip-rule="evenodd" d="M32.825 18.627c.857.23 1.532.906 1.763 1.762.428 1.565.412 4.827.412 4.827s0 3.246-.412 4.81a2.506 2.506 0 01-1.763 1.764c-1.565.412-7.825.412-7.825.412s-6.244 0-7.825-.429a2.506 2.506 0 01-1.763-1.763C15 28.462 15 25.2 15 25.2s0-3.246.412-4.81a2.557 2.557 0 011.763-1.78c1.565-.412 7.825-.412 7.825-.412s6.26 0 7.825.429zM28.212 25.2l-5.206 2.998v-5.996l5.206 2.998z" fill="#fff"/></g></g></svg>