<svg width="50" height="50" fill="none" xmlns="http://www.w3.org/2000/svg"><rect width="50" height="50" rx="25" fill="#F3F3F6"/><path d="M13.75 19.75c0-2.1 0-3.15.409-3.953a3.75 3.75 0 011.638-1.638c.803-.409 1.853-.409 3.953-.409h10.5c2.1 0 3.15 0 3.953.409a3.75 3.75 0 011.638 1.638c.409.803.409 1.853.409 3.953v7.125c0 1.747 0 2.62-.285 3.31a3.75 3.75 0 01-2.03 2.03c-.69.285-1.563.285-3.31.285-.61 0-.916 0-1.2.067a2.5 2.5 0 00-1.027.514c-.223.186-.407.43-.773.919L25.8 36.433c-.271.362-.407.543-.573.608a.624.624 0 01-.454 0c-.166-.065-.302-.246-.573-.608L22.375 34c-.366-.489-.55-.733-.773-.92a2.5 2.5 0 00-1.028-.513c-.283-.067-.588-.067-1.199-.067-1.747 0-2.62 0-3.31-.285a3.75 3.75 0 01-2.03-2.03c-.285-.69-.285-1.563-.285-3.31V19.75z" stroke="#292929" stroke-width="2" stroke-linecap="round" stroke-linejoin="round"/></svg>