<svg width="70" height="89" fill="none" xmlns="http://www.w3.org/2000/svg"><path d="M2.984 45.612c0-4.653 0-6.98.874-8.757a8.167 8.167 0 013.501-3.631c1.714-.906 3.958-.906 8.445-.906h38.459c4.487 0 6.731 0 8.445.906a8.167 8.167 0 013.501 3.63c.874 1.778.874 4.105.874 8.758v20.773c0 6.98 0 10.47-1.31 13.136a12.247 12.247 0 01-5.252 5.447c-2.571 1.359-5.937 1.359-12.668 1.359h-25.64c-6.73 0-10.096 0-12.667-1.359a12.247 12.247 0 01-5.252-5.447c-1.31-2.666-1.31-6.156-1.31-13.136V45.612z" fill="#176EF0"/><path d="M59.07 32.318V9.883c0-2.326 0-3.49-.436-4.378a4.083 4.083 0 00-1.751-1.816c-.857-.453-1.979-.453-4.223-.453H17.407c-2.243 0-3.365 0-4.222.453a4.083 4.083 0 00-1.75 1.816c-.437.888-.437 2.052-.437 4.378v22.435M27.02 19.854V15.7m16.025 4.154V15.7M22.214 86.327h25.64c6.73 0 10.096 0 12.666-1.359 2.262-1.195 4.1-3.101 5.253-5.447 1.31-2.666 1.31-6.156 1.31-13.136V45.612c0-4.653 0-6.98-.874-8.757a8.168 8.168 0 00-3.501-3.631c-1.714-.906-3.958-.906-8.445-.906h-38.46c-4.486 0-6.73 0-8.444.906a8.168 8.168 0 00-3.501 3.63c-.874 1.778-.874 4.105-.874 8.758v20.773c0 6.98 0 10.47 1.31 13.136a12.247 12.247 0 005.252 5.447c2.571 1.359 5.937 1.359 12.668 1.359z" stroke="#176EF0" stroke-width="4.748" stroke-linecap="round" stroke-linejoin="round"/></svg>