<svg width="451" height="87" fill="none" xmlns="http://www.w3.org/2000/svg"><path d="M68.057 2.66v82.244h-19.06V29.38l-7.613 55.524H27.867L19.839 30.65v54.254H.779V2.659h28.227c.829 4.945 1.71 10.77 2.641 17.475l3.004 20.93 4.972-38.405h28.434zm30.01 40.944h-19.63v-4.521c0-5.216.605-9.23 1.814-12.04 1.242-2.845 3.711-5.35 7.406-7.518 3.694-2.168 8.493-3.252 14.398-3.252 7.078 0 12.412 1.237 16.003 3.709 3.591 2.438 5.749 5.452 6.474 9.042.725 3.556 1.088 10.905 1.088 22.047v33.833h-20.354v-5.995c-1.278 2.405-2.935 4.217-4.972 5.436-2.003 1.185-4.403 1.778-7.2 1.778-3.66 0-7.026-.999-10.099-2.997-3.038-2.032-4.557-6.452-4.557-13.259V64.33c0-5.046.811-8.484 2.434-10.312 1.623-1.83 5.645-3.963 12.067-6.401 6.871-2.642 10.548-4.42 11.032-5.334.483-.915.725-2.777.725-5.588 0-3.522-.276-5.808-.829-6.858-.518-1.084-1.398-1.626-2.641-1.626-1.416 0-2.296.458-2.641 1.372-.346.88-.518 3.2-.518 6.96v7.06zm6.629 9.245c-3.349 2.405-5.3 4.42-5.852 6.045-.518 1.626-.777 3.963-.777 7.01 0 3.489.224 5.741.673 6.757.483 1.016 1.416 1.524 2.797 1.524 1.312 0 2.158-.39 2.537-1.168.415-.813.622-2.913.622-6.3V52.85zm52.591-35.356l-.363 6.197c1.52-2.472 3.367-4.318 5.542-5.537 2.21-1.253 4.748-1.88 7.613-1.88 3.591 0 6.526.83 8.805 2.49 2.279 1.66 3.746 3.759 4.402 6.299.656 2.506.984 6.705.984 12.598v47.244h-20.923V38.219c0-4.64-.156-7.468-.467-8.484-.31-1.016-1.174-1.524-2.589-1.524-1.485 0-2.417.593-2.797 1.778-.38 1.152-.57 4.268-.57 9.348v45.567h-20.923V17.493h21.286zm85.323 0v67.41h-21.286l.362-5.587c-1.45 2.269-3.245 3.98-5.386 5.13-2.106 1.118-4.54 1.677-7.303 1.677-3.142 0-5.748-.542-7.82-1.626-2.072-1.083-3.608-2.523-4.609-4.317-.967-1.796-1.571-3.658-1.813-5.589-.242-1.964-.363-5.841-.363-11.633V17.493h20.924v45.872c0 5.25.155 8.365.466 9.347.345.982 1.243 1.473 2.693 1.473 1.554 0 2.469-.508 2.745-1.524.311-1.016.466-4.284.466-9.804V17.493h20.924zm29.389 26.111H252.37v-4.521c0-5.216.604-9.23 1.812-12.04 1.243-2.845 3.712-5.35 7.406-7.518 3.695-2.168 8.494-3.252 14.398-3.252 7.079 0 12.413 1.237 16.004 3.709 3.591 2.438 5.749 5.452 6.474 9.042.725 3.556 1.088 10.905 1.088 22.047v33.833h-20.354v-5.995c-1.278 2.405-2.935 4.217-4.972 5.436-2.003 1.185-4.403 1.778-7.199 1.778-3.66 0-7.027-.999-10.1-2.997-3.038-2.032-4.557-6.452-4.557-13.259V64.33c0-5.046.811-8.484 2.434-10.312 1.623-1.83 5.645-3.963 12.067-6.401 6.871-2.642 10.548-4.42 11.032-5.334.483-.915.725-2.777.725-5.588 0-3.522-.276-5.808-.829-6.858-.518-1.084-1.398-1.626-2.641-1.626-1.416 0-2.296.458-2.642 1.372-.345.88-.517 3.2-.517 6.96v7.06zm6.629 9.245c-3.349 2.405-5.3 4.42-5.853 6.045-.518 1.626-.776 3.963-.776 7.01 0 3.489.224 5.741.673 6.757.483 1.016 1.415 1.524 2.797 1.524 1.312 0 2.157-.39 2.537-1.168.415-.813.622-2.913.622-6.3V52.85zm52.85-50.189v82.244h-21.545V2.659h21.545zm11.365 0h21.959c5.939 0 10.497.456 13.673 1.37 3.211.915 5.611 2.236 7.199 3.963 1.623 1.727 2.711 3.827 3.263 6.3.587 2.438.881 6.23.881 11.378v7.163c0 5.25-.553 9.076-1.658 11.48-1.105 2.405-3.142 4.251-6.111 5.538-2.935 1.287-6.785 1.93-11.55 1.93h-5.852v33.122h-21.804V2.659zm21.804 14.07v20.93c.621.034 1.157.05 1.606.05 2.002 0 3.383-.473 4.143-1.422.794-.982 1.191-2.997 1.191-6.045v-6.756c0-2.81-.449-4.64-1.347-5.486-.897-.847-2.762-1.27-5.593-1.27zm85.53 21.794h-21.804V24.198c0-4.165-.242-6.756-.725-7.772-.449-1.05-1.467-1.575-3.056-1.575-1.795 0-2.935.627-3.418 1.88-.483 1.253-.725 3.962-.725 8.128V63.06c0 3.996.242 6.604.725 7.823.483 1.22 1.571 1.829 3.263 1.829 1.623 0 2.676-.61 3.159-1.829.518-1.22.777-4.08.777-8.585V51.986h21.804v3.2c0 8.5-.621 14.529-1.864 18.085-1.209 3.556-3.919 6.671-8.131 9.347-4.178 2.675-9.34 4.013-15.486 4.013-6.388 0-11.653-1.135-15.796-3.404-4.144-2.269-6.889-5.401-8.235-9.398-1.347-4.03-2.02-10.075-2.02-18.135V31.666c0-5.927.207-10.363.621-13.31.415-2.98 1.64-5.842 3.678-8.585 2.071-2.743 4.92-4.894 8.545-6.451 3.66-1.592 7.855-2.388 12.585-2.388 6.423 0 11.723 1.22 15.9 3.658 4.178 2.438 6.923 5.486 8.235 9.143 1.312 3.624 1.968 9.28 1.968 16.968v7.823z" fill="#FFA412"/></svg>