
<svg display="none" xmlns="http://www.w3.org/2000/svg">
    <symbol id="search_icon" viewBox="0 0 24 24">
        <g>  
           <circle cx="10" cy="10" r="6" stroke-width="2" stroke-linecap="round" stroke-linejoin="round"/>
           <path d="M14.5 14.5L19 19" stroke-width="2" stroke-linecap="round" stroke-linejoin="round"/>  
        </g>
    </symbol>
    <symbol id="modal__btn-icon" viewBox="0 0 21 21">
        <g>    
          <path d="M1 1L20 20M20 1L1 20" stroke-width="2" stroke-linecap="round" stroke-linejoin="round"/>
        </g>
    </symbol>
    <symbol id="header__menu-btn" viewBox="0 0 20 14">
        <g>       
          <path d="M1 7H19M1 1H19M1 13H13" stroke-width="2" stroke-linecap="round" stroke-linejoin="round"/>
        </g>
    </symbol>
    <symbol id="scrollup-btn" viewBox="0 0 16 9" width="16" height="10">
        <g>  
          <path d="M0.999999 8L7.29289 1.70711C7.68342 1.31658 8.31658 1.31658 8.70711 1.70711L15 8" stroke-width="2" stroke-linecap="round" stroke-linejoin="round"/>
        </g>
    </symbol>
   <symbol id="social_icon_tlg" viewBox="0 0 48 48" width="48" height="48"> 
      <g>
          <rect x="8" y="8" width="32" height="32" rx="16" fill="#419FD9"/>           
          <path d="M27.5567 31.9229C28.6751 32.4121 29.0944 31.387 29.0944 31.387L32.0534 16.5224C32.0301 15.5206 30.6788 16.1263 30.6788 16.1263L14.1133 22.6267C14.1133 22.6267 13.3212 22.9063 13.3911 23.3955C13.461 23.8848 14.09 24.1178 14.09 24.1178L18.2605 25.5157C18.2605 25.5157 19.5187 29.6396 19.7749 30.4318C20.0079 31.2006 20.2176 31.2239 20.2176 31.2239C20.4506 31.3171 20.6603 31.154 20.6603 31.154L23.363 28.7076L27.5567 31.9229ZM28.2792 19.1551C28.2792 19.1551 28.8616 18.8056 28.8383 19.1551C28.8383 19.1551 28.9315 19.2017 28.6287 19.5279C28.3491 19.8075 21.7555 25.7254 20.8702 26.5175C20.8003 26.5641 20.7537 26.634 20.7537 26.7272L20.4974 28.9173C20.4508 29.1503 20.1479 29.1736 20.078 28.9639L18.983 25.3759C18.9364 25.2361 18.983 25.073 19.1228 24.9798L28.2792 19.1551Z" fill="white"/>
      </g>
    </symbol>
    <symbol id="social_icon_vk" viewBox="0 0 48 48" width="48" height="48"> 
      <g>          
          <rect x="8" y="8" width="32" height="32" rx="16" fill="#5181B8"/>
          <path fill-rule="evenodd" clip-rule="evenodd" d="M34.1779 19.023C34.3262 18.5286 34.1779 18.1652 33.472 18.1652H31.1381C30.5447 18.1652 30.2713 18.4791 30.1229 18.8253C30.1229 18.8253 28.936 21.7182 27.2546 23.5973C26.7106 24.1412 26.4634 24.3141 26.1666 24.3141C26.0183 24.3141 25.8036 24.1412 25.8036 23.6468V19.023C25.8036 18.4296 25.6314 18.1652 25.1367 18.1652H21.4692C21.0985 18.1652 20.8754 18.4406 20.8754 18.7016C20.8754 19.2643 21.7159 19.3939 21.8026 20.9763V24.4133C21.8026 25.1668 21.6666 25.3035 21.3699 25.3035C20.5787 25.3035 18.6542 22.3975 17.5126 19.0725C17.2889 18.4262 17.0645 18.1652 16.468 18.1652H14.1342C13.4673 18.1652 13.334 18.4791 13.334 18.8253C13.334 19.4435 14.1253 22.5095 17.0182 26.5645C18.947 29.3334 21.6639 30.8348 24.1365 30.8348C25.6202 30.8348 25.8036 30.5014 25.8036 29.9271V27.8341C25.8036 27.1673 25.9441 27.0342 26.4137 27.0342C26.7601 27.0342 27.3534 27.2073 28.7382 28.5424C30.3206 30.1246 30.5813 30.8348 31.4716 30.8348H33.8054C34.4723 30.8348 34.8057 30.5014 34.6133 29.8434C34.4029 29.1876 33.6474 28.2363 32.6448 27.1084C32.1009 26.4654 31.2848 25.7731 31.0378 25.427C30.6915 24.9819 30.7904 24.7842 31.0378 24.3888C31.0378 24.3888 33.8811 20.3832 34.1779 19.0232V19.023Z" fill="white"/>
      </g>
    </symbol>
    <symbol id="social_icon_wtsp" viewBox="0 0 49 48" width="49" height="48"> 
      <g>
          <rect x="8.5" y="8" width="32" height="32" rx="16" fill="#0DC143"/>
          <path d="M31.6676 16.8077C29.9523 15.0419 27.5811 14.0834 25.1595 14.0834C20.0136 14.0834 15.8766 18.2708 15.9271 23.3663C15.9271 24.9807 16.3811 26.5446 17.1379 27.9572L15.8262 32.75L20.7199 31.4888C22.082 32.2455 23.5955 32.5987 25.1091 32.5987C30.2045 32.5987 34.3415 28.4113 34.3415 23.3158C34.3415 20.8437 33.3829 18.523 31.6676 16.8077ZM25.1595 31.0347C23.7973 31.0347 22.4352 30.6816 21.2748 29.9753L20.9721 29.8239L18.046 30.5807L18.8027 27.705L18.6009 27.4023C16.3811 23.8203 17.4406 19.078 21.073 16.8581C24.7055 14.6383 29.3973 15.6978 31.6172 19.3302C33.837 22.9627 32.7775 27.6545 29.1451 29.8744C27.9847 30.6311 26.5721 31.0347 25.1595 31.0347ZM29.5991 25.4347L29.0442 25.1825C29.0442 25.1825 28.237 24.8293 27.7325 24.5771C27.682 24.5771 27.6316 24.5266 27.5811 24.5266C27.4298 24.5266 27.3289 24.5771 27.228 24.6275C27.228 24.6275 27.1775 24.678 26.4712 25.4852C26.4208 25.5861 26.3199 25.6365 26.219 25.6365H26.1685C26.1181 25.6365 26.0172 25.5861 25.9667 25.5356L25.7145 25.4347C25.1595 25.1825 24.655 24.8798 24.2514 24.4762C24.1505 24.3753 23.9991 24.2744 23.8982 24.1735C23.5451 23.8203 23.1919 23.4167 22.9397 22.9627L22.8892 22.8618C22.8388 22.8113 22.8388 22.7609 22.7883 22.66C22.7883 22.559 22.7883 22.4581 22.8388 22.4077C22.8388 22.4077 23.0406 22.1554 23.1919 22.0041C23.2928 21.9032 23.3433 21.7518 23.4442 21.6509C23.5451 21.4996 23.5955 21.2978 23.5451 21.1464C23.4946 20.8942 22.8892 19.532 22.7379 19.2293C22.637 19.078 22.5361 19.0275 22.3847 18.9771H22.2334C22.1325 18.9771 21.9811 18.9771 21.8298 18.9771C21.7289 18.9771 21.628 19.0275 21.5271 19.0275L21.4766 19.078C21.3757 19.1284 21.2748 19.2293 21.1739 19.2798C21.073 19.3807 21.0226 19.4816 20.9217 19.5825C20.5685 20.0365 20.3667 20.5915 20.3667 21.1464C20.3667 21.55 20.4676 21.9536 20.619 22.3068L20.6694 22.4581C21.1235 23.4167 21.7289 24.2744 22.5361 25.0311L22.7379 25.2329C22.8892 25.3843 23.0406 25.4852 23.1415 25.6365C24.2009 26.5446 25.4118 27.2005 26.7739 27.5536C26.9253 27.6041 27.1271 27.6041 27.2784 27.6545C27.4298 27.6545 27.6316 27.6545 27.7829 27.6545C28.0352 27.6545 28.3379 27.5536 28.5397 27.4527C28.691 27.3518 28.7919 27.3518 28.8928 27.2509L28.9937 27.15C29.0946 27.0491 29.1955 26.9987 29.2964 26.8978C29.3973 26.7969 29.4982 26.696 29.5487 26.5951C29.6496 26.3933 29.7 26.141 29.7505 25.8888C29.7505 25.7879 29.7505 25.6365 29.7505 25.5356C29.7505 25.5356 29.7 25.4852 29.5991 25.4347Z" fill="white"/>   
      </g>
    </symbol>
    <symbol id="social_icon_ok" viewBox="0 0 49 48" width="49" height="48"> 
      <g>
          <rect x="8.5" y="8" width="32" height="32" rx="16" fill="#EE8208"/>
          <path d="M24.5004 16.5601C25.7574 16.5601 26.78 17.5827 26.78 18.8398C26.78 20.0958 25.7572 21.1183 24.5004 21.1183C23.2441 21.1183 22.2213 20.0958 22.2213 18.8398C22.221 17.5824 23.2443 16.5601 24.5004 16.5601ZM24.5004 24.3435C27.5369 24.3435 30.0062 21.8749 30.0062 18.8398C30.0062 15.803 27.5371 13.3334 24.5004 13.3334C21.4641 13.3334 18.9945 15.8033 18.9945 18.8398C18.9945 21.8749 21.4641 24.3435 24.5004 24.3435ZM26.7278 28.8345C27.8604 28.5765 28.9413 28.129 29.9248 27.5107C30.2868 27.2829 30.5436 26.9207 30.6385 26.5036C30.7335 26.0865 30.6588 25.6488 30.431 25.2867C30.3184 25.1073 30.1715 24.9518 29.9987 24.8292C29.8259 24.7066 29.6306 24.6192 29.424 24.5721C29.2174 24.525 29.0036 24.5191 28.7947 24.5547C28.5859 24.5903 28.3861 24.6668 28.2068 24.7797C25.9511 26.1978 23.048 26.1967 20.7942 24.7797C20.6149 24.6668 20.4152 24.5903 20.2063 24.5547C19.9975 24.519 19.7836 24.5249 19.5771 24.572C19.3705 24.6191 19.1752 24.7065 19.0025 24.8291C18.8297 24.9518 18.6828 25.1073 18.5702 25.2867C18.3423 25.6487 18.2676 26.0863 18.3624 26.5034C18.4572 26.9205 18.7137 27.2828 19.0757 27.5107C20.059 28.1288 21.1397 28.5763 22.2721 28.8345L19.1943 31.9129C18.8918 32.2155 18.7219 32.6258 18.722 33.0536C18.722 33.4815 18.8921 33.8918 19.1947 34.1942C19.4972 34.4967 19.9076 34.6666 20.3354 34.6665C20.7632 34.6664 21.1735 34.4964 21.476 34.1938L24.4998 31.1695L27.5255 34.1941C27.6751 34.3439 27.8528 34.4628 28.0484 34.5439C28.244 34.625 28.4536 34.6667 28.6653 34.6667C28.8771 34.6667 29.0867 34.625 29.2823 34.5439C29.4779 34.4628 29.6555 34.3439 29.8051 34.1941C29.9552 34.0445 30.0742 33.8668 30.1555 33.6711C30.2367 33.4754 30.2785 33.2656 30.2785 33.0538C30.2785 32.8419 30.2367 32.6321 30.1555 32.4364C30.0742 32.2407 29.9552 32.063 29.8051 31.9134L26.7278 28.8345Z" fill="white"/> 
      </g>
    </symbol>
    <symbol id="social_icon_vb" viewBox="0 0 48 48" width="48" height="48"> 
      <g>
          <rect x="8" y="8" width="32" height="32" rx="16" fill="#675DA9"/>
<path d="M31.8366 16.123C31.3074 15.6364 29.1647 14.0785 24.3886 14.0572C24.3886 14.0572 18.7588 13.7157 16.0143 16.234C14.4863 17.762 13.9485 19.9943 13.893 22.7686C13.8375 25.5387 13.765 30.7331 18.7716 32.1416H18.7759L18.7716 34.2886C18.7716 34.2886 18.7417 35.1593 19.3137 35.3343C20.0051 35.5477 20.4149 34.8861 21.0764 34.1733C21.4392 33.7806 21.9386 33.2087 22.3185 32.7691C25.7416 33.055 28.3751 32.3977 28.6739 32.2996C29.3653 32.0734 33.2793 31.574 33.9153 26.3795C34.5726 21.0357 33.5952 17.651 31.8366 16.123ZM32.4171 26.0039C31.8793 30.3405 28.708 30.6136 28.1233 30.8014C27.8757 30.8825 25.5623 31.4587 22.6514 31.2667C22.6514 31.2667 20.4832 33.8831 19.8088 34.5617C19.7021 34.6684 19.5783 34.7111 19.4972 34.6898C19.382 34.6599 19.3478 34.5233 19.3521 34.3227C19.3521 34.0325 19.3692 30.7502 19.3692 30.7502C19.3649 30.7502 19.3649 30.7502 19.3692 30.7502C15.1308 29.5764 15.3784 25.1546 15.4253 22.8412C15.4723 20.5278 15.9076 18.6284 17.2009 17.3522C19.5185 15.2523 24.3032 15.5639 24.3032 15.5639C28.341 15.5809 30.2745 16.7974 30.7226 17.2029C32.2122 18.4833 32.972 21.5351 32.4171 26.0039Z" fill="white"/>
<path d="M26.3554 22.9223C26.2145 22.9223 26.095 22.8114 26.0865 22.6662C26.0395 21.7486 25.6085 21.3004 24.7292 21.2534C24.5798 21.2449 24.4646 21.1169 24.4731 20.9675C24.4816 20.8181 24.6097 20.7028 24.7591 20.7114C25.92 20.7754 26.5688 21.4412 26.6286 22.6364C26.6371 22.7857 26.5219 22.9138 26.3725 22.9181C26.3639 22.9223 26.3597 22.9223 26.3554 22.9223Z" fill="white"/>
<path d="M27.7385 23.3834H27.7342C27.5848 23.3791 27.4653 23.2553 27.4696 23.106C27.4909 22.184 27.2263 21.4371 26.6629 20.8225C26.1037 20.2078 25.3312 19.8749 24.3111 19.8024C24.1617 19.7895 24.0507 19.6615 24.0635 19.5121C24.0763 19.3627 24.2044 19.2518 24.3537 19.2646C25.5062 19.3499 26.4153 19.7511 27.0641 20.4597C27.7171 21.1725 28.033 22.0645 28.0116 23.1188C28.0073 23.2682 27.8836 23.3834 27.7385 23.3834Z" fill="white"/>
<path d="M29.156 23.9381C29.0066 23.9381 28.8871 23.8185 28.8871 23.6692C28.8743 22.0174 28.4005 20.7582 27.4359 19.815C26.4841 18.8845 25.2762 18.4107 23.8548 18.3979C23.7054 18.3979 23.5859 18.2741 23.5859 18.1247C23.5859 17.9753 23.7097 17.8558 23.8548 17.8558C25.4213 17.8686 26.753 18.3936 27.8072 19.4265C28.8657 20.4595 29.4078 21.885 29.4249 23.6606C29.4291 23.8143 29.3096 23.9381 29.156 23.9381C29.1602 23.9381 29.1602 23.9381 29.156 23.9381Z" fill="white"/>
<path d="M24.7938 26.2643C24.7938 26.2643 25.1736 26.2984 25.3785 26.0466L25.7755 25.5472C25.9675 25.2997 26.4328 25.1418 26.8852 25.3936C27.137 25.5344 27.5937 25.8161 27.8754 26.0253C28.1785 26.2472 28.7931 26.7594 28.7974 26.7637C29.0919 27.0112 29.1602 27.374 28.9596 27.7624C28.9596 27.7624 28.9596 27.7667 28.9596 27.771C28.7547 28.1338 28.4772 28.4752 28.1315 28.7911C28.1273 28.7911 28.1273 28.7954 28.123 28.7954C27.837 29.0344 27.5553 29.171 27.2821 29.2008C27.248 29.2094 27.2096 29.2094 27.1584 29.2094C27.0389 29.2094 26.9193 29.1923 26.7998 29.1539L26.7913 29.1411C26.3645 29.0216 25.6559 28.7228 24.4779 28.0698C23.7096 27.6472 23.0737 27.2161 22.5316 26.785C22.2456 26.5588 21.9554 26.307 21.6566 26.0082C21.6481 25.9997 21.6353 25.9869 21.6267 25.9783C21.6182 25.9698 21.6054 25.957 21.5969 25.9484C21.5883 25.9399 21.5755 25.9271 21.567 25.9186C21.5584 25.91 21.5456 25.8972 21.5371 25.8887C21.2426 25.5899 20.9865 25.2997 20.7603 25.0137C20.3292 24.4759 19.8981 23.8357 19.4756 23.0674C18.8225 21.8851 18.5237 21.1766 18.4042 20.754L18.3914 20.7455C18.353 20.626 18.3359 20.5065 18.3359 20.3869C18.3359 20.3357 18.3359 20.2973 18.3445 20.2632C18.3786 19.9857 18.5152 19.7083 18.75 19.4223C18.75 19.4181 18.7542 19.4181 18.7542 19.4138C19.0701 19.0638 19.4115 18.7906 19.7743 18.5858C19.7743 18.5858 19.7786 18.5858 19.7829 18.5858C20.167 18.3851 20.5298 18.4534 20.7816 18.7479C20.7816 18.7479 21.2981 19.3668 21.52 19.6699C21.7292 19.9559 22.0109 20.4083 22.1517 20.6601C22.4036 21.1125 22.2456 21.5778 21.9981 21.7699L21.4987 22.1668C21.2469 22.3717 21.281 22.7515 21.281 22.7515C21.281 22.7515 22.0194 25.56 24.7938 26.2643Z" fill="white"/>
      </g>
    </symbol>
    <symbol id="social_icon_lk" viewBox="0 0 48 48" width="48" height="48"> 
      <g>
           <path d="M14.2222 17.7779L13.4411 16.9968C12.3997 15.9554 12.3997 14.267 13.4411 13.2256L19.4477 7.21904C20.4891 6.17764 22.1775 6.17764 23.2189 7.21904L24.781 8.78113C25.8224 9.82253 25.8224 11.511 24.781 12.5524L22.6666 14.6667M17.7777 14.2223L18.5588 15.0034C19.6002 16.0448 19.6002 17.7332 18.5588 18.7746L12.5522 24.7811C11.5108 25.8225 9.8224 25.8225 8.78101 24.7811L7.21892 23.219C6.17752 22.1776 6.17752 20.4892 7.21891 19.4478L9.33329 17.3334" stroke-width="2" stroke-linecap="round" stroke-linejoin="round"/>
      </g>
    </symbol>
    <symbol id="post_btn" viewBox="0 0 22 22">
        <g>
            <path d="M21 11L1 1L3.5 11M21 11L1 21L3.5 11M21 11H3.5" stroke-width="2" stroke-linecap="round" stroke-linejoin="round"/> 
        </g>
    </symbol>
    <symbol id="header__btn-icon" viewBox="0 0 10 16">
        <g>
           <path d="M1.5 1L7.79289 7.29289C8.18342 7.68342 8.18342 8.31658 7.79289 8.70711L1.5 15" stroke-width="2" stroke-linecap="round" stroke-linejoin="round"/> 
        </g>
    </symbol>
    <symbol id="sidebar-image_1" viewBox="0 0 254 188">
      <g>
       <path d="M137.814 46.4715C130.732 47.5434 124.933 48.4143 124.923 48.4238C124.904 48.4238 124.895 52.9219 124.895 58.4248V68.4258H138.149H151.404V56.4629V44.5L151.05 44.5096C150.849 44.5191 144.896 45.3996 137.814 46.4715ZM149.682 56.5586V66.6074H138.149H126.617V58.2525V49.9072L138.082 48.2229C144.38 47.2945 149.567 46.5289 149.615 46.5193C149.653 46.5193 149.682 51.027 149.682 56.5586Z"/>
       <path d="M112.673 50.1369L102.596 51.6299V60.1187V68.6172H112.979H123.363V58.6162V48.6152L123.057 48.6248C122.885 48.6344 118.205 49.3139 112.673 50.1369ZM121.545 58.7598V66.8945H112.932H104.318V60.0135V53.1324L105.4 52.9697C115.075 51.5246 121.066 50.6441 121.287 50.6346L121.545 50.625V58.7598Z"/>
       <path d="M102.596 78.2545V86.3701L112.865 87.8822C118.502 88.7149 123.181 89.3944 123.248 89.3848C123.335 89.3848 123.363 87.3942 123.363 79.7666V70.1485H112.979H102.596V78.2545ZM121.545 79.6709C121.545 86.0735 121.526 87.375 121.421 87.375C121.344 87.375 117.497 86.8199 112.874 86.1309C108.252 85.4514 104.433 84.8867 104.395 84.8867C104.347 84.8867 104.318 81.9774 104.318 78.4268V71.9668H112.932H121.545V79.6709Z"/>
       <path d="M124.895 79.8527V89.557L125.162 89.6145C125.679 89.7197 150.993 93.5 151.194 93.5H151.404V81.8242V70.1484H138.149H124.895V79.8527ZM149.682 81.7572V91.5572L148.275 91.3371C147.49 91.2223 142.303 90.4471 136.743 89.6145L126.617 88.0928V80.0346V71.9668H138.149H149.682V81.7572Z"/>
       <path d="M65.1535 113.2C65.1535 112.252 65.3575 111.406 65.7655 110.662C66.1855 109.918 66.7555 109.33 67.4755 108.898C68.1955 108.466 69.0115 108.25 69.9235 108.25C70.8475 108.25 71.6635 108.466 72.3715 108.898C73.0915 109.33 73.6555 109.918 74.0635 110.662C74.4835 111.406 74.6935 112.252 74.6935 113.2C74.6935 114.148 74.4835 114.994 74.0635 115.738C73.6555 116.482 73.0915 117.07 72.3715 117.502C71.6635 117.934 70.8475 118.15 69.9235 118.15C69.0115 118.15 68.1955 117.934 67.4755 117.502C66.7555 117.07 66.1855 116.482 65.7655 115.738C65.3575 114.994 65.1535 114.148 65.1535 113.2ZM63.5335 113.2C63.5335 114.112 63.6895 114.964 64.0015 115.756C64.3255 116.548 64.7755 117.238 65.3515 117.826C65.9275 118.402 66.6055 118.858 67.3855 119.194C68.1655 119.518 69.0115 119.68 69.9235 119.68C70.8475 119.68 71.6935 119.518 72.4615 119.194C73.2415 118.858 73.9195 118.402 74.4955 117.826C75.0715 117.238 75.5155 116.548 75.8275 115.756C76.1515 114.964 76.3135 114.112 76.3135 113.2C76.3135 112.276 76.1515 111.424 75.8275 110.644C75.5155 109.852 75.0715 109.168 74.4955 108.592C73.9195 108.004 73.2415 107.548 72.4615 107.224C71.6935 106.888 70.8475 106.72 69.9235 106.72C69.0115 106.72 68.1655 106.888 67.3855 107.224C66.6055 107.548 65.9275 108.004 65.3515 108.592C64.7755 109.168 64.3255 109.852 64.0015 110.644C63.6895 111.424 63.5335 112.276 63.5335 113.2ZM85.1342 111.22H78.3842V119.5H79.8242V112.57H83.6942V119.5H85.1342V111.22ZM88.0392 115.72H95.1132C95.1252 115.648 95.1312 115.576 95.1312 115.504C95.1312 115.432 95.1312 115.36 95.1312 115.288C95.1312 114.412 94.9692 113.662 94.6452 113.038C94.3212 112.402 93.8652 111.91 93.2772 111.562C92.6892 111.214 92.0052 111.04 91.2252 111.04C90.5172 111.04 89.8752 111.184 89.2992 111.472C88.7352 111.76 88.2732 112.162 87.9132 112.678C87.5532 113.194 87.3132 113.794 87.1932 114.478C87.1692 114.622 87.1512 114.766 87.1392 114.91C87.1272 115.054 87.1212 115.204 87.1212 115.36C87.1212 116.188 87.2892 116.932 87.6252 117.592C87.9732 118.24 88.4412 118.75 89.0292 119.122C89.6292 119.494 90.3012 119.68 91.0452 119.68C91.7652 119.68 92.3652 119.596 92.8452 119.428C93.3252 119.248 93.7332 119.002 94.0692 118.69C94.4052 118.366 94.7112 117.994 94.9872 117.574L93.8172 116.836C93.6372 117.136 93.4212 117.4 93.1692 117.628C92.9172 117.844 92.6292 118.018 92.3052 118.15C91.9932 118.27 91.6332 118.33 91.2252 118.33C90.6852 118.33 90.2172 118.216 89.8212 117.988C89.4252 117.76 89.1192 117.424 88.9032 116.98C88.6872 116.536 88.5792 115.996 88.5792 115.36L88.6152 114.82C88.6152 114.304 88.7292 113.86 88.9572 113.488C89.1972 113.104 89.5152 112.81 89.9112 112.606C90.3072 112.402 90.7452 112.3 91.2252 112.3C91.7052 112.3 92.1072 112.396 92.4312 112.588C92.7672 112.768 93.0252 113.026 93.2052 113.362C93.3972 113.686 93.5172 114.064 93.5652 114.496H88.0392V115.72ZM98.4549 123.46V111.22H97.0149V123.46H98.4549ZM105.385 115.36C105.385 114.46 105.199 113.692 104.827 113.056C104.455 112.408 103.957 111.91 103.333 111.562C102.721 111.214 102.037 111.04 101.281 111.04C100.597 111.04 99.9909 111.214 99.4629 111.562C98.9469 111.91 98.5389 112.408 98.2389 113.056C97.9509 113.692 97.8069 114.46 97.8069 115.36C97.8069 116.248 97.9509 117.016 98.2389 117.664C98.5389 118.312 98.9469 118.81 99.4629 119.158C99.9909 119.506 100.597 119.68 101.281 119.68C102.037 119.68 102.721 119.506 103.333 119.158C103.957 118.81 104.455 118.312 104.827 117.664C105.199 117.016 105.385 116.248 105.385 115.36ZM103.927 115.36C103.927 115.996 103.795 116.536 103.531 116.98C103.279 117.424 102.937 117.76 102.505 117.988C102.085 118.216 101.617 118.33 101.101 118.33C100.681 118.33 100.267 118.216 99.8589 117.988C99.4509 117.76 99.1149 117.424 98.8509 116.98C98.5869 116.536 98.4549 115.996 98.4549 115.36C98.4549 114.724 98.5869 114.184 98.8509 113.74C99.1149 113.296 99.4509 112.96 99.8589 112.732C100.267 112.504 100.681 112.39 101.101 112.39C101.617 112.39 102.085 112.504 102.505 112.732C102.937 112.96 103.279 113.296 103.531 113.74C103.795 114.184 103.927 114.724 103.927 115.36ZM108.019 117.07C108.019 116.734 108.097 116.446 108.253 116.206C108.409 115.966 108.643 115.78 108.955 115.648C109.279 115.516 109.681 115.45 110.161 115.45C110.689 115.45 111.163 115.522 111.583 115.666C112.003 115.798 112.417 116.008 112.825 116.296V115.45C112.741 115.342 112.585 115.204 112.357 115.036C112.129 114.856 111.823 114.7 111.439 114.568C111.067 114.424 110.617 114.352 110.089 114.352C109.369 114.352 108.745 114.466 108.217 114.694C107.689 114.91 107.281 115.222 106.993 115.63C106.705 116.038 106.561 116.536 106.561 117.124C106.561 117.688 106.687 118.162 106.939 118.546C107.203 118.918 107.551 119.2 107.983 119.392C108.415 119.584 108.889 119.68 109.405 119.68C109.981 119.68 110.503 119.584 110.971 119.392C111.439 119.188 111.811 118.9 112.087 118.528C112.375 118.144 112.519 117.688 112.519 117.16L112.231 116.26C112.231 116.776 112.123 117.19 111.907 117.502C111.703 117.814 111.415 118.042 111.043 118.186C110.671 118.33 110.245 118.402 109.765 118.402C109.441 118.402 109.147 118.354 108.883 118.258C108.619 118.15 108.409 118 108.253 117.808C108.097 117.604 108.019 117.358 108.019 117.07ZM108.019 113.164C108.151 113.068 108.331 112.954 108.559 112.822C108.799 112.678 109.081 112.558 109.405 112.462C109.729 112.354 110.089 112.3 110.485 112.3C110.941 112.3 111.343 112.408 111.691 112.624C112.051 112.828 112.231 113.14 112.231 113.56V119.5H113.671V113.56C113.671 113.02 113.533 112.564 113.257 112.192C112.993 111.82 112.621 111.538 112.141 111.346C111.673 111.142 111.121 111.04 110.485 111.04C109.741 111.04 109.105 111.154 108.577 111.382C108.049 111.61 107.629 111.838 107.317 112.066L108.019 113.164ZM122.857 118.15V111.22H121.417V118.15H117.547V111.22H116.107V119.5H123.037V121.12H124.297V118.15H122.857ZM133.215 112.66L133.305 110.59L126.465 118.06L126.375 120.13L133.215 112.66ZM127.815 111.22H126.375V120.13L127.815 118.15V111.22ZM133.305 110.59L131.865 112.57V119.5H133.305V110.59ZM135.373 115.36C135.373 116.188 135.559 116.932 135.931 117.592C136.315 118.24 136.831 118.75 137.479 119.122C138.127 119.494 138.853 119.68 139.657 119.68C140.473 119.68 141.199 119.494 141.835 119.122C142.483 118.75 142.993 118.24 143.365 117.592C143.749 116.932 143.941 116.188 143.941 115.36C143.941 114.52 143.749 113.776 143.365 113.128C142.993 112.48 142.483 111.97 141.835 111.598C141.199 111.226 140.473 111.04 139.657 111.04C138.853 111.04 138.127 111.226 137.479 111.598C136.831 111.97 136.315 112.48 135.931 113.128C135.559 113.776 135.373 114.52 135.373 115.36ZM136.831 115.36C136.831 114.784 136.951 114.274 137.191 113.83C137.443 113.374 137.779 113.02 138.199 112.768C138.631 112.516 139.117 112.39 139.657 112.39C140.197 112.39 140.677 112.516 141.097 112.768C141.529 113.02 141.865 113.374 142.105 113.83C142.357 114.274 142.483 114.784 142.483 115.36C142.483 115.936 142.357 116.446 142.105 116.89C141.865 117.334 141.529 117.688 141.097 117.952C140.677 118.204 140.197 118.33 139.657 118.33C139.117 118.33 138.631 118.204 138.199 117.952C137.779 117.688 137.443 117.334 137.191 116.89C136.951 116.446 136.831 115.936 136.831 115.36ZM146.765 115.81H152.885V114.46H146.765V115.81ZM151.949 111.22V119.5H153.389V111.22H151.949ZM145.919 111.22V119.5H147.359V111.22H145.919ZM156.943 115.81H163.063V114.46H156.943V115.81ZM162.127 111.22V119.5H163.567V111.22H162.127ZM156.097 111.22V119.5H157.537V111.22H156.097ZM173.745 111.22V119.5H175.185V111.22H173.745ZM166.275 111.22V119.5H167.715V111.22H166.275ZM167.121 115.612H169.695C170.223 115.612 170.619 115.726 170.883 115.954C171.147 116.182 171.279 116.506 171.279 116.926C171.279 117.202 171.219 117.442 171.099 117.646C170.979 117.838 170.799 117.988 170.559 118.096C170.331 118.192 170.043 118.24 169.695 118.24H167.121V119.5H169.695C170.271 119.5 170.787 119.41 171.243 119.23C171.699 119.05 172.059 118.768 172.323 118.384C172.587 118 172.719 117.514 172.719 116.926C172.719 116.038 172.425 115.39 171.837 114.982C171.261 114.562 170.547 114.352 169.695 114.352H167.121V115.612ZM178.074 115.72H185.148C185.16 115.648 185.166 115.576 185.166 115.504C185.166 115.432 185.166 115.36 185.166 115.288C185.166 114.412 185.004 113.662 184.68 113.038C184.356 112.402 183.9 111.91 183.312 111.562C182.724 111.214 182.04 111.04 181.26 111.04C180.552 111.04 179.91 111.184 179.334 111.472C178.77 111.76 178.308 112.162 177.948 112.678C177.588 113.194 177.348 113.794 177.228 114.478C177.204 114.622 177.186 114.766 177.174 114.91C177.162 115.054 177.156 115.204 177.156 115.36C177.156 116.188 177.324 116.932 177.66 117.592C178.008 118.24 178.476 118.75 179.064 119.122C179.664 119.494 180.336 119.68 181.08 119.68C181.8 119.68 182.4 119.596 182.88 119.428C183.36 119.248 183.768 119.002 184.104 118.69C184.44 118.366 184.746 117.994 185.022 117.574L183.852 116.836C183.672 117.136 183.456 117.4 183.204 117.628C182.952 117.844 182.664 118.018 182.34 118.15C182.028 118.27 181.668 118.33 181.26 118.33C180.72 118.33 180.252 118.216 179.856 117.988C179.46 117.76 179.154 117.424 178.938 116.98C178.722 116.536 178.614 115.996 178.614 115.36L178.65 114.82C178.65 114.304 178.764 113.86 178.992 113.488C179.232 113.104 179.55 112.81 179.946 112.606C180.342 112.402 180.78 112.3 181.26 112.3C181.74 112.3 182.142 112.396 182.466 112.588C182.802 112.768 183.06 113.026 183.24 113.362C183.432 113.686 183.552 114.064 183.6 114.496H178.074V115.72ZM97.208 135.36C97.208 134.784 97.328 134.274 97.568 133.83C97.82 133.374 98.156 133.02 98.576 132.768C99.008 132.516 99.494 132.39 100.034 132.39C100.478 132.39 100.892 132.462 101.276 132.606C101.672 132.738 102.014 132.918 102.302 133.146C102.59 133.374 102.794 133.626 102.914 133.902V132.102C102.626 131.766 102.212 131.508 101.672 131.328C101.144 131.136 100.598 131.04 100.034 131.04C99.23 131.04 98.504 131.226 97.856 131.598C97.208 131.97 96.692 132.48 96.308 133.128C95.936 133.776 95.75 134.52 95.75 135.36C95.75 136.188 95.936 136.932 96.308 137.592C96.692 138.24 97.208 138.75 97.856 139.122C98.504 139.494 99.23 139.68 100.034 139.68C100.598 139.68 101.144 139.59 101.672 139.41C102.212 139.218 102.626 138.954 102.914 138.618V136.818C102.794 137.082 102.59 137.334 102.302 137.574C102.014 137.802 101.672 137.988 101.276 138.132C100.892 138.264 100.478 138.33 100.034 138.33C99.494 138.33 99.008 138.204 98.576 137.952C98.156 137.688 97.82 137.334 97.568 136.89C97.328 136.446 97.208 135.936 97.208 135.36ZM112.086 132.66L112.176 130.59L105.336 138.06L105.246 140.13L112.086 132.66ZM106.686 131.22H105.246V140.13L106.686 138.15V131.22ZM112.176 130.59L110.736 132.57V139.5H112.176V130.59ZM115.612 135.36C115.612 134.784 115.732 134.274 115.972 133.83C116.224 133.374 116.56 133.02 116.98 132.768C117.412 132.516 117.898 132.39 118.438 132.39C118.882 132.39 119.296 132.462 119.68 132.606C120.076 132.738 120.418 132.918 120.706 133.146C120.994 133.374 121.198 133.626 121.318 133.902V132.102C121.03 131.766 120.616 131.508 120.076 131.328C119.548 131.136 119.002 131.04 118.438 131.04C117.634 131.04 116.908 131.226 116.26 131.598C115.612 131.97 115.096 132.48 114.712 133.128C114.34 133.776 114.154 134.52 114.154 135.36C114.154 136.188 114.34 136.932 114.712 137.592C115.096 138.24 115.612 138.75 116.26 139.122C116.908 139.494 117.634 139.68 118.438 139.68C119.002 139.68 119.548 139.59 120.076 139.41C120.616 139.218 121.03 138.954 121.318 138.618V136.818C121.198 137.082 120.994 137.334 120.706 137.574C120.418 137.802 120.076 137.988 119.68 138.132C119.296 138.264 118.882 138.33 118.438 138.33C117.898 138.33 117.412 138.204 116.98 137.952C116.56 137.688 116.224 137.334 115.972 136.89C115.732 136.446 115.612 135.936 115.612 135.36ZM122.3 131.22V132.57H127.16V131.22H122.3ZM124.01 131.58V139.5H125.45V131.58H124.01ZM128.539 135.72H135.613C135.625 135.648 135.631 135.576 135.631 135.504C135.631 135.432 135.631 135.36 135.631 135.288C135.631 134.412 135.469 133.662 135.145 133.038C134.821 132.402 134.365 131.91 133.777 131.562C133.189 131.214 132.505 131.04 131.725 131.04C131.017 131.04 130.375 131.184 129.799 131.472C129.235 131.76 128.773 132.162 128.413 132.678C128.053 133.194 127.813 133.794 127.693 134.478C127.669 134.622 127.651 134.766 127.639 134.91C127.627 135.054 127.621 135.204 127.621 135.36C127.621 136.188 127.789 136.932 128.125 137.592C128.473 138.24 128.941 138.75 129.529 139.122C130.129 139.494 130.801 139.68 131.545 139.68C132.265 139.68 132.865 139.596 133.345 139.428C133.825 139.248 134.233 139.002 134.569 138.69C134.905 138.366 135.211 137.994 135.487 137.574L134.317 136.836C134.137 137.136 133.921 137.4 133.669 137.628C133.417 137.844 133.129 138.018 132.805 138.15C132.493 138.27 132.133 138.33 131.725 138.33C131.185 138.33 130.717 138.216 130.321 137.988C129.925 137.76 129.619 137.424 129.403 136.98C129.187 136.536 129.079 135.996 129.079 135.36L129.115 134.82C129.115 134.304 129.229 133.86 129.457 133.488C129.697 133.104 130.015 132.81 130.411 132.606C130.807 132.402 131.245 132.3 131.725 132.3C132.205 132.3 132.607 132.396 132.931 132.588C133.267 132.768 133.525 133.026 133.705 133.362C133.897 133.686 134.017 134.064 134.065 134.496H128.539V135.72ZM145.471 139.5H147.091L144.931 130.59L144.121 132.93L145.471 139.5ZM141.151 138.258L141.691 140.058L145.111 133.47L144.931 130.59L141.151 138.258ZM141.691 140.058L142.231 138.258L138.505 130.59L138.325 133.47L141.691 140.058ZM136.345 139.5H137.965L139.315 132.93L138.505 130.59L136.345 139.5ZM156.008 131.22V139.5H157.448V131.22H156.008ZM148.538 131.22V139.5H149.978V131.22H148.538ZM149.384 135.612H151.958C152.486 135.612 152.882 135.726 153.146 135.954C153.41 136.182 153.542 136.506 153.542 136.926C153.542 137.202 153.482 137.442 153.362 137.646C153.242 137.838 153.062 137.988 152.822 138.096C152.594 138.192 152.306 138.24 151.958 138.24H149.384V139.5H151.958C152.534 139.5 153.05 139.41 153.506 139.23C153.962 139.05 154.322 138.768 154.586 138.384C154.85 138 154.982 137.514 154.982 136.926C154.982 136.038 154.688 135.39 154.1 134.982C153.524 134.562 152.81 134.352 151.958 134.352H149.384V135.612Z"/>
      </g>
    </symbol>
    
    <symbol id="sidebar-image_2" viewBox="0 0 254 188">
        <g>
         <path d="M123.194 54.6819C120.208 55.2178 117.653 56.4141 115.317 58.3664C114.159 59.3426 113.384 60.2518 113.384 60.6346C113.384 61.027 113.758 61.3906 114.169 61.3906C114.427 61.3906 114.581 61.2854 115.107 60.7303C117.49 58.2037 120.591 56.5768 123.902 56.127C125.022 55.9739 127.079 55.993 128.18 56.1748C131.338 56.6821 134.171 58.1463 136.449 60.4528C137.769 61.783 138.765 63.276 139.559 65.1039C139.789 65.6399 140.047 66.0897 140.191 66.1949C140.363 66.3194 140.708 66.3959 141.483 66.4629C143.923 66.6735 145.933 67.6209 147.608 69.3531C148.823 70.5973 149.493 71.7457 150.01 73.4492C150.364 74.6264 150.431 76.751 150.144 78.0334C149.809 79.5455 149.139 80.8949 148.105 82.1774C147.474 82.9526 147.407 83.2684 147.79 83.6416C148.163 84.0244 148.555 83.967 149.034 83.4598C150.354 82.0817 151.426 79.8709 151.761 77.8229C151.924 76.8276 151.876 74.7508 151.675 73.7842C150.737 69.3149 147.292 65.9174 142.842 65.0752C142.421 64.9987 141.875 64.9317 141.626 64.9317H141.186L140.803 64.0895C139.377 60.9408 137.109 58.4143 134.123 56.6629C132.448 55.6772 130.659 55.036 128.62 54.6819C127.175 54.4426 124.582 54.4426 123.194 54.6819Z"/>
         <path d="M111.815 62.74C111.595 62.874 110.8 64.5201 110.427 65.6494C110.092 66.6734 109.767 68.1855 109.681 69.1809L109.623 69.8986L108.953 70.0996C105.948 71.0184 103.651 73.5258 103.001 76.617C102.819 77.4879 102.819 79.3637 103.001 80.2346C103.651 83.3354 105.91 85.7949 108.934 86.7137C109.748 86.9625 109.92 86.9721 112.217 87.0199L114.629 87.0582V88.8191C114.629 91.2691 114.581 91.3457 113.25 91.3457C112.762 91.3457 112.753 91.3361 112.628 91.0012C112.293 90.0729 111.289 89.4316 110.178 89.4316C108.618 89.4412 107.547 90.5035 107.547 92.0635C107.547 93.1832 108.102 94.0541 109.078 94.4943C109.7 94.7814 110.695 94.7623 111.327 94.4656C111.872 94.2168 112.447 93.6234 112.628 93.1354L112.743 92.8004L113.777 92.7621C114.743 92.7334 114.83 92.7143 115.212 92.4463C115.432 92.2836 115.72 91.9678 115.844 91.7381C116.055 91.3361 116.064 91.2309 116.064 89.1732V87.0391H118.313H120.562V88.1301C120.562 89.202 120.572 89.2307 120.811 89.4221C121.136 89.6805 121.423 89.6805 121.749 89.4221C121.988 89.2307 121.998 89.202 121.998 88.1301V87.0391H124.295H126.591V90.427V93.8244L126.84 94.0158C127.166 94.2742 127.453 94.2742 127.778 94.0158L128.027 93.8244V90.427V87.0391H130.324H132.621V91.8529V96.6764L132.841 97.0975C132.965 97.3271 133.252 97.643 133.473 97.8057C133.855 98.0736 133.941 98.0928 134.908 98.1215L135.942 98.1598L136.056 98.4947C136.391 99.4135 137.396 100.055 138.506 100.055C140.066 100.055 141.129 98.9828 141.138 97.4229C141.138 95.8629 140.066 94.8006 138.506 94.791C137.387 94.791 136.391 95.4322 136.056 96.3701L135.923 96.7242L135.176 96.6859C134.65 96.6572 134.382 96.5902 134.267 96.4754C134.123 96.3318 134.104 95.8916 134.075 91.6807L134.047 87.0391H136.305H138.554V89.1732C138.554 91.2309 138.564 91.3361 138.774 91.7381C138.899 91.9678 139.186 92.2836 139.406 92.4463C139.789 92.7143 139.875 92.7334 140.842 92.7621L141.875 92.8004L141.99 93.1354C142.325 94.0541 143.33 94.6953 144.44 94.6953C146 94.6953 147.062 93.6234 147.072 92.0635C147.072 90.5035 146 89.4412 144.44 89.4316C143.32 89.4316 142.325 90.0729 141.99 91.0107L141.856 91.3648L141.11 91.3266C140.009 91.2596 140.047 91.3457 140.009 89.0105L139.98 87.0582L141.445 87.0199C143.052 86.9625 143.799 86.8189 145.129 86.2639C146.316 85.7662 146.651 85.2781 146.201 84.7039C145.933 84.3594 145.569 84.3785 144.584 84.7996C144.134 84.9814 143.406 85.2303 142.957 85.3355C142.143 85.5365 142.105 85.5365 126.4 85.5174C116.189 85.5078 110.456 85.46 110.092 85.4025C107.958 85.0293 106.14 83.632 105.087 81.5457C104.14 79.6604 104.14 77.1912 105.087 75.3059C106.082 73.3248 107.748 71.9945 109.872 71.449C111.011 71.1619 111.126 70.9992 111.222 69.4775C111.327 67.8506 111.786 66.1566 112.581 64.4627C112.81 63.9746 113.002 63.4578 113.002 63.3334C113.002 62.8262 112.293 62.4721 111.815 62.74ZM110.954 91.2883C111.231 91.5658 111.279 91.6807 111.279 92.0635C111.279 92.4463 111.231 92.5611 110.954 92.8387C110.676 93.1162 110.561 93.1641 110.178 93.1641C109.796 93.1641 109.681 93.1162 109.403 92.8387C109.126 92.5611 109.078 92.4463 109.078 92.0635C109.078 91.6807 109.126 91.5658 109.403 91.2883C109.681 91.0107 109.796 90.9629 110.178 90.9629C110.561 90.9629 110.676 91.0107 110.954 91.2883ZM145.215 91.2883C145.493 91.5658 145.541 91.6807 145.541 92.0635C145.541 92.4463 145.493 92.5611 145.215 92.8387C144.938 93.1162 144.823 93.1641 144.44 93.1641C144.057 93.1641 143.942 93.1162 143.665 92.8387C143.387 92.5611 143.34 92.4463 143.34 92.0635C143.34 91.6807 143.387 91.5658 143.665 91.2883C143.942 91.0107 144.057 90.9629 144.44 90.9629C144.823 90.9629 144.938 91.0107 145.215 91.2883ZM139.282 96.6477C139.559 96.9252 139.607 97.04 139.607 97.4229C139.607 97.8057 139.559 97.9205 139.282 98.198C139.004 98.4756 138.889 98.5234 138.506 98.5234C138.124 98.5234 138.009 98.4756 137.731 98.198C137.454 97.9205 137.406 97.8057 137.406 97.4229C137.406 97.04 137.454 96.9252 137.731 96.6477C138.009 96.3701 138.124 96.3223 138.506 96.3223C138.889 96.3223 139.004 96.3701 139.282 96.6477Z"/>
         <path d="M120.772 91.6328C120.572 91.8242 120.562 91.8912 120.562 93.8914C120.562 96.6668 120.543 96.7051 119.184 96.7051C118.696 96.7051 118.686 96.6955 118.562 96.3605C118.495 96.1691 118.275 95.8437 118.083 95.6236C117.097 94.523 115.193 94.4943 114.179 95.5662C113.202 96.5998 113.241 98.3895 114.255 99.3561C115.317 100.351 117.117 100.294 118.083 99.2221C118.275 99.002 118.495 98.6766 118.562 98.4947L118.677 98.1598L119.71 98.1215C120.677 98.0928 120.763 98.0736 121.146 97.8057C121.366 97.643 121.653 97.3271 121.777 97.0975C121.988 96.6859 121.997 96.5998 121.997 94.2646C121.997 91.8721 121.997 91.8529 121.777 91.652C121.5 91.384 121.05 91.384 120.772 91.6328ZM116.887 96.6477C117.164 96.9252 117.212 97.04 117.212 97.4229C117.212 97.8057 117.164 97.9205 116.887 98.198C116.609 98.4756 116.495 98.5234 116.112 98.5234C115.729 98.5234 115.614 98.4756 115.337 98.198C115.059 97.9205 115.011 97.8057 115.011 97.4229C115.011 97.04 115.059 96.9252 115.337 96.6477C115.614 96.3701 115.729 96.3223 116.112 96.3223C116.495 96.3223 116.609 96.3701 116.887 96.6477Z"/>
         <path d="M126.802 96.2266C126.61 96.4084 126.591 96.5232 126.591 97.3559V98.2937L126.247 98.4182C125.318 98.7531 124.677 99.758 124.677 100.868C124.677 102.428 125.749 103.5 127.309 103.5C128.869 103.5 129.941 102.428 129.941 100.868C129.941 99.758 129.3 98.7531 128.371 98.4182L128.027 98.2937V97.375C128.027 96.5328 128.008 96.4371 127.807 96.2457C127.529 95.9777 127.079 95.9777 126.802 96.2266ZM128.084 100.093C128.362 100.371 128.41 100.485 128.41 100.868C128.41 101.251 128.362 101.366 128.084 101.643C127.807 101.921 127.692 101.969 127.309 101.969C126.658 101.969 126.208 101.519 126.208 100.868C126.208 100.485 126.256 100.371 126.534 100.093C126.811 99.8154 126.926 99.7676 127.309 99.7676C127.692 99.7676 127.807 99.8154 128.084 100.093Z"/>
         <path d="M62.7277 123.2C62.7277 122.252 62.9317 121.406 63.3397 120.662C63.7597 119.918 64.3297 119.33 65.0497 118.898C65.7697 118.466 66.5857 118.25 67.4977 118.25C68.4217 118.25 69.2377 118.466 69.9457 118.898C70.6657 119.33 71.2297 119.918 71.6377 120.662C72.0577 121.406 72.2677 122.252 72.2677 123.2C72.2677 124.148 72.0577 124.994 71.6377 125.738C71.2297 126.482 70.6657 127.07 69.9457 127.502C69.2377 127.934 68.4217 128.15 67.4977 128.15C66.5857 128.15 65.7697 127.934 65.0497 127.502C64.3297 127.07 63.7597 126.482 63.3397 125.738C62.9317 124.994 62.7277 124.148 62.7277 123.2ZM61.1077 123.2C61.1077 124.112 61.2637 124.964 61.5757 125.756C61.8997 126.548 62.3497 127.238 62.9257 127.826C63.5017 128.402 64.1797 128.858 64.9597 129.194C65.7397 129.518 66.5857 129.68 67.4977 129.68C68.4217 129.68 69.2677 129.518 70.0357 129.194C70.8157 128.858 71.4937 128.402 72.0697 127.826C72.6457 127.238 73.0897 126.548 73.4017 125.756C73.7257 124.964 73.8877 124.112 73.8877 123.2C73.8877 122.276 73.7257 121.424 73.4017 120.644C73.0897 119.852 72.6457 119.168 72.0697 118.592C71.4937 118.004 70.8157 117.548 70.0357 117.224C69.2677 116.888 68.4217 116.72 67.4977 116.72C66.5857 116.72 65.7397 116.888 64.9597 117.224C64.1797 117.548 63.5017 118.004 62.9257 118.592C62.3497 119.168 61.8997 119.852 61.5757 120.644C61.2637 121.424 61.1077 122.276 61.1077 123.2ZM76.8044 125.81H82.9244V124.46H76.8044V125.81ZM81.9884 121.22V129.5H83.4284V121.22H81.9884ZM75.9584 121.22V129.5H77.3984V121.22H75.9584ZM93.3901 121.22H86.2801V126.62C86.2801 127.208 86.1481 127.616 85.8841 127.844C85.6321 128.072 85.3261 128.186 84.9661 128.186V129.5C85.5901 129.5 86.1061 129.398 86.5141 129.194C86.9221 128.978 87.2221 128.66 87.4141 128.24C87.6181 127.808 87.7201 127.268 87.7201 126.62V122.57H91.9501V129.5H93.3901V121.22ZM96.8212 127.07C96.8212 126.734 96.8992 126.446 97.0552 126.206C97.2112 125.966 97.4452 125.78 97.7572 125.648C98.0812 125.516 98.4832 125.45 98.9632 125.45C99.4912 125.45 99.9652 125.522 100.385 125.666C100.805 125.798 101.219 126.008 101.627 126.296V125.45C101.543 125.342 101.387 125.204 101.159 125.036C100.931 124.856 100.625 124.7 100.241 124.568C99.8692 124.424 99.4192 124.352 98.8912 124.352C98.1712 124.352 97.5472 124.466 97.0192 124.694C96.4912 124.91 96.0832 125.222 95.7952 125.63C95.5072 126.038 95.3632 126.536 95.3632 127.124C95.3632 127.688 95.4892 128.162 95.7412 128.546C96.0052 128.918 96.3532 129.2 96.7852 129.392C97.2172 129.584 97.6912 129.68 98.2072 129.68C98.7832 129.68 99.3052 129.584 99.7732 129.392C100.241 129.188 100.613 128.9 100.889 128.528C101.177 128.144 101.321 127.688 101.321 127.16L101.033 126.26C101.033 126.776 100.925 127.19 100.709 127.502C100.505 127.814 100.217 128.042 99.8452 128.186C99.4732 128.33 99.0472 128.402 98.5672 128.402C98.2432 128.402 97.9492 128.354 97.6852 128.258C97.4212 128.15 97.2112 128 97.0552 127.808C96.8992 127.604 96.8212 127.358 96.8212 127.07ZM96.8212 123.164C96.9532 123.068 97.1332 122.954 97.3612 122.822C97.6012 122.678 97.8832 122.558 98.2072 122.462C98.5312 122.354 98.8912 122.3 99.2872 122.3C99.7432 122.3 100.145 122.408 100.493 122.624C100.853 122.828 101.033 123.14 101.033 123.56V129.5H102.473V123.56C102.473 123.02 102.335 122.564 102.059 122.192C101.795 121.82 101.423 121.538 100.943 121.346C100.475 121.142 99.9232 121.04 99.2872 121.04C98.5432 121.04 97.9072 121.154 97.3792 121.382C96.8512 121.61 96.4312 121.838 96.1192 122.066L96.8212 123.164ZM111.84 122.66L111.93 120.59L105.09 128.06L105 130.13L111.84 122.66ZM106.44 121.22H105V130.13L106.44 128.15V121.22ZM111.93 120.59L110.49 122.57V129.5H111.93V120.59ZM105.666 116.99C105.666 117.398 105.768 117.8 105.972 118.196C106.188 118.58 106.506 118.898 106.926 119.15C107.358 119.39 107.886 119.51 108.51 119.51C109.146 119.51 109.674 119.39 110.094 119.15C110.514 118.898 110.826 118.58 111.03 118.196C111.246 117.8 111.354 117.398 111.354 116.99H110.076C110.076 117.146 110.034 117.332 109.95 117.548C109.866 117.752 109.71 117.938 109.482 118.106C109.254 118.262 108.93 118.34 108.51 118.34C108.09 118.34 107.766 118.262 107.538 118.106C107.31 117.938 107.154 117.752 107.07 117.548C106.986 117.332 106.944 117.146 106.944 116.99H105.666ZM115.564 125.81H121.684V124.46H115.564V125.81ZM120.748 121.22V129.5H122.188V121.22H120.748ZM114.718 121.22V129.5H116.158V121.22H114.718ZM123.636 125.9H127.236V124.55H123.636V125.9ZM129.323 125.36C129.323 124.784 129.443 124.274 129.683 123.83C129.935 123.374 130.271 123.02 130.691 122.768C131.123 122.516 131.609 122.39 132.149 122.39C132.593 122.39 133.007 122.462 133.391 122.606C133.787 122.738 134.129 122.918 134.417 123.146C134.705 123.374 134.909 123.626 135.029 123.902V122.102C134.741 121.766 134.327 121.508 133.787 121.328C133.259 121.136 132.713 121.04 132.149 121.04C131.345 121.04 130.619 121.226 129.971 121.598C129.323 121.97 128.807 122.48 128.423 123.128C128.051 123.776 127.865 124.52 127.865 125.36C127.865 126.188 128.051 126.932 128.423 127.592C128.807 128.24 129.323 128.75 129.971 129.122C130.619 129.494 131.345 129.68 132.149 129.68C132.713 129.68 133.259 129.59 133.787 129.41C134.327 129.218 134.741 128.954 135.029 128.618V126.818C134.909 127.082 134.705 127.334 134.417 127.574C134.129 127.802 133.787 127.988 133.391 128.132C133.007 128.264 132.593 128.33 132.149 128.33C131.609 128.33 131.123 128.204 130.691 127.952C130.271 127.688 129.935 127.334 129.683 126.89C129.443 126.446 129.323 125.936 129.323 125.36ZM137.469 125.72H144.543C144.555 125.648 144.561 125.576 144.561 125.504C144.561 125.432 144.561 125.36 144.561 125.288C144.561 124.412 144.399 123.662 144.075 123.038C143.751 122.402 143.295 121.91 142.707 121.562C142.119 121.214 141.435 121.04 140.655 121.04C139.947 121.04 139.305 121.184 138.729 121.472C138.165 121.76 137.703 122.162 137.343 122.678C136.983 123.194 136.743 123.794 136.623 124.478C136.599 124.622 136.581 124.766 136.569 124.91C136.557 125.054 136.551 125.204 136.551 125.36C136.551 126.188 136.719 126.932 137.055 127.592C137.403 128.24 137.871 128.75 138.459 129.122C139.059 129.494 139.731 129.68 140.475 129.68C141.195 129.68 141.795 129.596 142.275 129.428C142.755 129.248 143.163 129.002 143.499 128.69C143.835 128.366 144.141 127.994 144.417 127.574L143.247 126.836C143.067 127.136 142.851 127.4 142.599 127.628C142.347 127.844 142.059 128.018 141.735 128.15C141.423 128.27 141.063 128.33 140.655 128.33C140.115 128.33 139.647 128.216 139.251 127.988C138.855 127.76 138.549 127.424 138.333 126.98C138.117 126.536 138.009 125.996 138.009 125.36L138.045 124.82C138.045 124.304 138.159 123.86 138.387 123.488C138.627 123.104 138.945 122.81 139.341 122.606C139.737 122.402 140.175 122.3 140.655 122.3C141.135 122.3 141.537 122.396 141.861 122.588C142.197 122.768 142.455 123.026 142.635 123.362C142.827 123.686 142.947 124.064 142.995 124.496H137.469V125.72ZM147.885 133.46V121.22H146.445V133.46H147.885ZM154.815 125.36C154.815 124.46 154.629 123.692 154.257 123.056C153.885 122.408 153.387 121.91 152.763 121.562C152.151 121.214 151.467 121.04 150.711 121.04C150.027 121.04 149.421 121.214 148.893 121.562C148.377 121.91 147.969 122.408 147.669 123.056C147.381 123.692 147.237 124.46 147.237 125.36C147.237 126.248 147.381 127.016 147.669 127.664C147.969 128.312 148.377 128.81 148.893 129.158C149.421 129.506 150.027 129.68 150.711 129.68C151.467 129.68 152.151 129.506 152.763 129.158C153.387 128.81 153.885 128.312 154.257 127.664C154.629 127.016 154.815 126.248 154.815 125.36ZM153.357 125.36C153.357 125.996 153.225 126.536 152.961 126.98C152.709 127.424 152.367 127.76 151.935 127.988C151.515 128.216 151.047 128.33 150.531 128.33C150.111 128.33 149.697 128.216 149.289 127.988C148.881 127.76 148.545 127.424 148.281 126.98C148.017 126.536 147.885 125.996 147.885 125.36C147.885 124.724 148.017 124.184 148.281 123.74C148.545 123.296 148.881 122.96 149.289 122.732C149.697 122.504 150.111 122.39 150.531 122.39C151.047 122.39 151.515 122.504 151.935 122.732C152.367 122.96 152.709 123.296 152.961 123.74C153.225 124.184 153.357 124.724 153.357 125.36ZM157.646 125.18V125.936H160.04C160.316 125.936 160.55 125.966 160.742 126.026C160.946 126.074 161.108 126.152 161.228 126.26C161.36 126.368 161.456 126.488 161.516 126.62C161.588 126.752 161.624 126.902 161.624 127.07C161.624 127.394 161.492 127.67 161.228 127.898C160.976 128.126 160.58 128.24 160.04 128.24H157.646V129.5H160.4C161.348 129.5 162.026 129.284 162.434 128.852C162.854 128.408 163.064 127.874 163.064 127.25C163.064 126.71 162.932 126.29 162.668 125.99C162.404 125.69 162.044 125.48 161.588 125.36C161.132 125.24 160.616 125.18 160.04 125.18H157.646ZM157.646 125.54H159.86C160.376 125.54 160.844 125.468 161.264 125.324C161.696 125.168 162.044 124.94 162.308 124.64C162.572 124.328 162.704 123.938 162.704 123.47C162.704 122.93 162.572 122.498 162.308 122.174C162.044 121.838 161.696 121.598 161.264 121.454C160.844 121.298 160.376 121.22 159.86 121.22H157.646V122.48H159.86C160.292 122.48 160.634 122.582 160.886 122.786C161.138 122.978 161.264 123.236 161.264 123.56C161.264 123.716 161.228 123.866 161.156 124.01C161.096 124.142 161.006 124.262 160.886 124.37C160.766 124.478 160.616 124.562 160.436 124.622C160.268 124.67 160.076 124.694 159.86 124.694H157.646V125.54ZM156.8 121.22V129.5H158.24V121.22H156.8ZM171.886 122.66L171.976 120.59L165.136 128.06L165.046 130.13L171.886 122.66ZM166.486 121.22H165.046V130.13L166.486 128.15V121.22ZM171.976 120.59L170.536 122.57V129.5H171.976V120.59ZM175.413 125.36C175.413 124.784 175.533 124.274 175.773 123.83C176.025 123.374 176.361 123.02 176.781 122.768C177.213 122.516 177.699 122.39 178.239 122.39C178.683 122.39 179.097 122.462 179.481 122.606C179.877 122.738 180.219 122.918 180.507 123.146C180.795 123.374 180.999 123.626 181.119 123.902V122.102C180.831 121.766 180.417 121.508 179.877 121.328C179.349 121.136 178.803 121.04 178.239 121.04C177.435 121.04 176.709 121.226 176.061 121.598C175.413 121.97 174.897 122.48 174.513 123.128C174.141 123.776 173.955 124.52 173.955 125.36C173.955 126.188 174.141 126.932 174.513 127.592C174.897 128.24 175.413 128.75 176.061 129.122C176.709 129.494 177.435 129.68 178.239 129.68C178.803 129.68 179.349 129.59 179.877 129.41C180.417 129.218 180.831 128.954 181.119 128.618V126.818C180.999 127.082 180.795 127.334 180.507 127.574C180.219 127.802 179.877 127.988 179.481 128.132C179.097 128.264 178.683 128.33 178.239 128.33C177.699 128.33 177.213 128.204 176.781 127.952C176.361 127.688 176.025 127.334 175.773 126.89C175.533 126.446 175.413 125.936 175.413 125.36ZM190.831 121.22V129.5H192.271V121.22H190.831ZM183.361 121.22V129.5H184.801V121.22H183.361ZM184.207 125.612H186.781C187.309 125.612 187.705 125.726 187.969 125.954C188.233 126.182 188.365 126.506 188.365 126.926C188.365 127.202 188.305 127.442 188.185 127.646C188.065 127.838 187.885 127.988 187.645 128.096C187.417 128.192 187.129 128.24 186.781 128.24H184.207V129.5H186.781C187.357 129.5 187.873 129.41 188.329 129.23C188.785 129.05 189.145 128.768 189.409 128.384C189.673 128 189.805 127.514 189.805 126.926C189.805 126.038 189.511 125.39 188.923 124.982C188.347 124.562 187.633 124.352 186.781 124.352H184.207V125.612Z">
        </g>
    </symbol>



    <symbol id="sidebar-image_3" viewBox="0 0 470 260" width="470" height="260">
        <g>
        

<path d="M221.924 139.327C220.807 138.939 219.99 138.234 219.442 137.17C219.174 136.649 219.152 136.506 219.12 135.003C219.077 133.5 219.088 133.398 219.302 133.193C219.593 132.917 220.302 132.897 220.592 133.173C220.753 133.326 220.796 133.572 220.839 134.625C220.903 136.035 221.043 136.496 221.602 137.048C221.795 137.242 222.139 137.487 222.376 137.61L222.805 137.835H232.744C243.704 137.835 243.156 137.866 243.951 137.181C244.628 136.608 244.8 136.107 244.865 134.625C244.908 133.572 244.951 133.326 245.112 133.173C245.402 132.897 246.111 132.917 246.401 133.193C246.616 133.398 246.627 133.5 246.584 135.003C246.552 136.536 246.541 136.639 246.24 137.221C245.832 138.009 245.015 138.786 244.188 139.174L243.543 139.471L233.013 139.491C222.956 139.511 222.461 139.511 221.924 139.327Z" fill="#292929"/>
<path d="M229.629 136.046C229.489 135.913 229.414 135.708 229.414 135.432C229.414 135.156 229.489 134.952 229.629 134.819C229.833 134.625 229.984 134.615 232.852 134.615C235.721 134.615 235.872 134.625 236.076 134.819C236.216 134.952 236.291 135.156 236.291 135.432C236.291 135.708 236.216 135.913 236.076 136.046C235.872 136.24 235.721 136.25 232.852 136.25C229.984 136.25 229.833 136.24 229.629 136.046Z" fill="#292929"/>
<path d="M220.066 131.138C215.306 130.167 211.674 126.712 210.718 122.244C210.427 120.874 210.427 118.911 210.718 117.541C211.685 113.053 215.327 109.587 220.119 108.636C221.463 108.371 223.601 108.371 225.008 108.647C229.725 109.567 233.368 113.033 234.367 117.592C234.647 118.85 234.647 120.935 234.367 122.193C233.368 126.753 229.725 130.218 225.008 131.138C223.622 131.404 221.377 131.404 220.066 131.138ZM224.299 129.492C228.028 128.92 231.219 126.19 232.39 122.581C232.659 121.753 232.68 121.549 232.68 119.893C232.68 118.226 232.659 118.042 232.379 117.183C232.046 116.161 231.423 114.955 230.821 114.188L230.424 113.666L230.22 114.024C229.736 114.883 228.393 115.916 227.211 116.345C226.599 116.56 226.405 116.57 222.763 116.601C219.099 116.631 218.937 116.621 218.164 116.406C216.853 116.028 215.402 114.985 214.854 114.024L214.65 113.666L214.253 114.188C213.64 114.965 213.017 116.171 212.695 117.183C212.351 118.308 212.222 120.281 212.437 121.487C213.028 125.004 215.821 128.071 219.421 129.175C221.033 129.666 222.494 129.758 224.299 129.492ZM225.589 114.893C226.953 114.719 228.189 113.922 228.823 112.797L229.038 112.419L228.737 112.174C227.942 111.509 226.147 110.732 224.74 110.426C223.569 110.17 221.506 110.17 220.334 110.426C218.927 110.732 217.132 111.509 216.337 112.174L216.036 112.419L216.251 112.797C216.853 113.881 218.142 114.73 219.389 114.883C220.281 114.995 224.708 114.995 225.589 114.893Z" fill="#292929"/>
<path d="M221.065 126.241C219.937 125.843 219.131 125.148 218.583 124.084C218.314 123.573 218.293 123.42 218.293 122.346C218.293 121.252 218.314 121.13 218.605 120.557C219.013 119.77 219.83 118.993 220.657 118.604C221.259 118.328 221.388 118.308 222.537 118.308C223.687 118.308 223.816 118.328 224.418 118.604C225.245 118.993 226.062 119.77 226.47 120.557C226.76 121.13 226.781 121.252 226.781 122.346C226.781 123.44 226.76 123.563 226.47 124.135C226.062 124.923 225.245 125.7 224.418 126.078C223.859 126.344 223.633 126.385 222.698 126.415C221.85 126.436 221.506 126.395 221.065 126.241ZM223.483 124.534C224.396 124.176 225.009 123.307 225.009 122.346C225.009 121.027 223.923 119.995 222.537 119.995C221.151 119.995 220.066 121.027 220.066 122.346C220.066 123.266 220.614 124.074 221.516 124.524C221.936 124.739 222.967 124.739 223.483 124.534Z" fill="#292929"/>
<path d="M240.073 131.128C238.826 130.668 238.01 129.462 238.01 128.071C238.01 126.742 238.697 125.659 239.89 125.107L240.427 124.851L246.455 124.82C252.376 124.8 252.505 124.8 253.096 125.015C255.9 126.006 255.9 130.136 253.106 131.128C252.526 131.333 252.333 131.343 246.574 131.333C240.879 131.333 240.621 131.322 240.073 131.128ZM252.515 129.441C253.665 128.797 253.665 127.345 252.515 126.701C252.15 126.497 252 126.487 246.606 126.487C241.212 126.487 241.061 126.497 240.696 126.701C239.342 127.448 239.632 129.257 241.158 129.615C241.341 129.656 243.898 129.687 246.821 129.676C251.978 129.656 252.15 129.646 252.515 129.441Z" fill="#292929"/>
<path d="M245.144 123.021C244.94 122.878 244.94 122.581 244.887 108.473C244.833 94.1396 244.833 94.0782 244.607 93.6182C244.339 93.0661 243.672 92.4629 243.103 92.2789C242.48 92.0642 223.225 92.0642 222.601 92.2789C222.032 92.4629 221.366 93.0661 221.097 93.6182C220.882 94.068 220.871 94.2623 220.818 100.294C220.764 106.306 220.753 106.52 220.56 106.663C220.238 106.878 219.571 106.847 219.313 106.602C219.099 106.398 219.088 106.306 219.12 99.875L219.152 93.3626L219.464 92.7492C219.872 91.962 220.689 91.185 221.516 90.7965L222.161 90.5H232.852H243.543L244.188 90.7965C245.015 91.185 245.832 91.962 246.24 92.7492C246.552 93.3524 246.552 93.383 246.584 95.3766C246.616 97.36 246.627 97.3804 246.831 97.1862C247.003 97.0226 247.197 96.9919 248.196 96.9919C249.647 96.9919 249.657 97.0022 250.001 98.4948C250.141 99.0877 250.27 99.5887 250.291 99.5989C250.302 99.6091 250.71 99.7625 251.194 99.9465L252.086 100.284L253.031 99.7114C254.45 98.8628 254.525 98.8731 255.932 100.192C256.545 100.764 257.125 101.378 257.2 101.562C257.383 101.971 257.308 102.196 256.577 103.249L256.04 104.046L256.394 104.884C256.588 105.355 256.76 105.743 256.77 105.764C256.781 105.784 257.318 105.907 257.963 106.05C259.553 106.387 259.5 106.295 259.5 108.493C259.5 110.078 259.478 110.272 259.306 110.426C259.188 110.518 258.586 110.702 257.942 110.845C257.308 110.978 256.781 111.1 256.77 111.121C256.76 111.141 256.588 111.53 256.394 111.99L256.04 112.828L256.62 113.728C256.953 114.219 257.243 114.709 257.275 114.812C257.404 115.159 257.061 115.65 255.932 116.703C254.525 118.011 254.45 118.022 253.031 117.173L252.075 116.601L251.194 116.938C250.71 117.122 250.302 117.286 250.291 117.286C250.27 117.296 250.141 117.797 250.001 118.39C249.657 119.882 249.647 119.893 248.196 119.893C247.175 119.893 247.014 119.872 246.821 119.688L246.606 119.484V121.119C246.606 122.622 246.584 122.776 246.391 122.96C246.133 123.205 245.456 123.236 245.144 123.021ZM247.605 118.257H248.174L248.379 117.275C248.486 116.734 248.669 116.181 248.776 116.059C248.884 115.916 249.27 115.732 249.679 115.599C250.076 115.476 250.732 115.22 251.129 115.026C251.538 114.832 251.978 114.679 252.118 114.679C252.258 114.679 252.601 114.822 252.902 114.996C253.192 115.18 253.601 115.425 253.816 115.558L254.202 115.793L254.697 115.312L255.18 114.832L254.6 113.973C254.278 113.493 254.02 113.002 254.02 112.869C254.02 112.736 254.181 112.317 254.385 111.939C254.578 111.56 254.847 110.957 254.976 110.589C255.105 110.221 255.245 109.874 255.288 109.812C255.417 109.618 255.76 109.495 256.738 109.311L257.673 109.127V108.442V107.757L256.738 107.573C255.76 107.389 255.417 107.267 255.288 107.072C255.245 107.011 255.105 106.663 254.976 106.295C254.847 105.927 254.578 105.324 254.385 104.946C254.181 104.568 254.02 104.148 254.02 104.015C254.02 103.883 254.278 103.392 254.6 102.911L255.18 102.053L254.697 101.572L254.202 101.092L253.816 101.327C253.601 101.46 253.192 101.705 252.902 101.889C252.601 102.063 252.258 102.206 252.118 102.206C251.978 102.206 251.538 102.053 251.129 101.858C250.732 101.664 250.076 101.408 249.679 101.286C249.27 101.153 248.884 100.969 248.776 100.826C248.669 100.703 248.486 100.151 248.379 99.6091L248.174 98.6277H247.605C247.175 98.6277 246.982 98.5766 246.821 98.4232L246.606 98.2187L246.627 104.884L246.659 111.56L247.573 111.55C248.626 111.55 249.131 111.356 249.829 110.691C250.56 109.996 250.743 109.557 250.743 108.442C250.743 107.686 250.7 107.389 250.538 107.113C250.173 106.459 249.7 105.978 249.131 105.672C248.508 105.334 248.271 104.966 248.389 104.516C248.465 104.2 248.905 103.842 249.217 103.842C249.851 103.842 251.248 104.854 251.849 105.764C252.838 107.226 252.902 109.424 252 110.896C251.054 112.46 249.421 113.35 247.508 113.35H246.606V116.008V118.666L246.821 118.461C246.982 118.308 247.175 118.257 247.605 118.257Z" fill="#292929"/>
<path d="M214.221 105.161C213.984 104.987 213.941 104.864 213.941 104.465C213.941 103.934 214.113 103.699 214.608 103.586C215.177 103.453 215.65 103.872 215.661 104.527C215.661 104.864 215.607 104.997 215.381 105.161C215.22 105.283 214.962 105.375 214.801 105.375C214.64 105.375 214.382 105.283 214.221 105.161Z" fill="#292929"/>
<path d="M224.471 104.966C224.331 104.833 224.256 104.629 224.256 104.353C224.256 104.077 224.331 103.872 224.471 103.739C224.686 103.535 224.825 103.535 232.852 103.535C240.878 103.535 241.018 103.535 241.233 103.739C241.373 103.872 241.448 104.077 241.448 104.353C241.448 104.629 241.373 104.833 241.233 104.966C241.018 105.171 240.878 105.171 232.852 105.171C224.825 105.171 224.686 105.171 224.471 104.966Z" fill="#292929"/>
<path d="M214.221 101.889C213.984 101.715 213.941 101.593 213.941 101.194C213.941 100.662 214.113 100.427 214.608 100.315C215.177 100.182 215.65 100.601 215.661 101.255C215.661 101.593 215.607 101.725 215.381 101.889C215.22 102.012 214.962 102.104 214.801 102.104C214.64 102.104 214.382 102.012 214.221 101.889Z" fill="#292929"/>
<path d="M224.471 101.695C224.331 101.562 224.256 101.357 224.256 101.081C224.256 100.805 224.331 100.601 224.471 100.468C224.675 100.274 224.825 100.263 228.554 100.263C232.282 100.263 232.433 100.274 232.637 100.468C232.777 100.601 232.852 100.805 232.852 101.081C232.852 101.357 232.777 101.562 232.637 101.695C232.433 101.889 232.282 101.899 228.554 101.899C224.825 101.899 224.675 101.889 224.471 101.695Z" fill="#292929"/>
<path d="M214.221 98.6174C213.984 98.4436 213.941 98.321 213.941 97.9222C213.941 97.3906 214.113 97.1555 214.608 97.043C215.177 96.9101 215.65 97.3293 215.661 97.9836C215.661 98.321 215.607 98.4539 215.381 98.6174C215.22 98.7401 214.962 98.8321 214.801 98.8321C214.64 98.8321 214.382 98.7401 214.221 98.6174Z" fill="#292929"/>
<path d="M224.471 98.4232C224.331 98.2903 224.256 98.0859 224.256 97.8098C224.256 97.5338 224.331 97.3293 224.471 97.1964C224.686 96.9919 224.825 96.9919 231.133 96.9919C237.44 96.9919 237.58 96.9919 237.795 97.1964C237.934 97.3293 238.009 97.5338 238.009 97.8098C238.009 98.0859 237.934 98.2903 237.795 98.4232C237.58 98.6277 237.44 98.6277 231.133 98.6277C224.825 98.6277 224.686 98.6277 224.471 98.4232Z" fill="#292929"/>
<path d="M199.214 154.34V165.5H200.744V152.9H190.754V165.5H192.284V154.34H199.214ZM204.882 169.46V157.22H203.442V169.46H204.882ZM211.812 161.36C211.812 160.46 211.626 159.692 211.254 159.056C210.882 158.408 210.384 157.91 209.76 157.562C209.148 157.214 208.464 157.04 207.708 157.04C207.024 157.04 206.418 157.214 205.89 157.562C205.374 157.91 204.966 158.408 204.666 159.056C204.378 159.692 204.234 160.46 204.234 161.36C204.234 162.248 204.378 163.016 204.666 163.664C204.966 164.312 205.374 164.81 205.89 165.158C206.418 165.506 207.024 165.68 207.708 165.68C208.464 165.68 209.148 165.506 209.76 165.158C210.384 164.81 210.882 164.312 211.254 163.664C211.626 163.016 211.812 162.248 211.812 161.36ZM210.354 161.36C210.354 161.996 210.222 162.536 209.958 162.98C209.706 163.424 209.364 163.76 208.932 163.988C208.512 164.216 208.044 164.33 207.528 164.33C207.108 164.33 206.694 164.216 206.286 163.988C205.878 163.76 205.542 163.424 205.278 162.98C205.014 162.536 204.882 161.996 204.882 161.36C204.882 160.724 205.014 160.184 205.278 159.74C205.542 159.296 205.878 158.96 206.286 158.732C206.694 158.504 207.108 158.39 207.528 158.39C208.044 158.39 208.512 158.504 208.932 158.732C209.364 158.96 209.706 159.296 209.958 159.74C210.222 160.184 210.354 160.724 210.354 161.36ZM213.077 161.36C213.077 162.188 213.263 162.932 213.635 163.592C214.019 164.24 214.535 164.75 215.183 165.122C215.831 165.494 216.557 165.68 217.361 165.68C218.177 165.68 218.903 165.494 219.539 165.122C220.187 164.75 220.697 164.24 221.069 163.592C221.453 162.932 221.645 162.188 221.645 161.36C221.645 160.52 221.453 159.776 221.069 159.128C220.697 158.48 220.187 157.97 219.539 157.598C218.903 157.226 218.177 157.04 217.361 157.04C216.557 157.04 215.831 157.226 215.183 157.598C214.535 157.97 214.019 158.48 213.635 159.128C213.263 159.776 213.077 160.52 213.077 161.36ZM214.535 161.36C214.535 160.784 214.655 160.274 214.895 159.83C215.147 159.374 215.483 159.02 215.903 158.768C216.335 158.516 216.821 158.39 217.361 158.39C217.901 158.39 218.381 158.516 218.801 158.768C219.233 159.02 219.569 159.374 219.809 159.83C220.061 160.274 220.187 160.784 220.187 161.36C220.187 161.936 220.061 162.446 219.809 162.89C219.569 163.334 219.233 163.688 218.801 163.952C218.381 164.204 217.901 164.33 217.361 164.33C216.821 164.33 216.335 164.204 215.903 163.952C215.483 163.688 215.147 163.334 214.895 162.89C214.655 162.446 214.535 161.936 214.535 161.36ZM223.713 157.22V165.5H225.153V158.57H228.123V157.22H223.713ZM230.915 169.46V157.22H229.475V169.46H230.915ZM237.845 161.36C237.845 160.46 237.659 159.692 237.287 159.056C236.915 158.408 236.417 157.91 235.793 157.562C235.181 157.214 234.497 157.04 233.741 157.04C233.057 157.04 232.451 157.214 231.923 157.562C231.407 157.91 230.999 158.408 230.699 159.056C230.411 159.692 230.267 160.46 230.267 161.36C230.267 162.248 230.411 163.016 230.699 163.664C230.999 164.312 231.407 164.81 231.923 165.158C232.451 165.506 233.057 165.68 233.741 165.68C234.497 165.68 235.181 165.506 235.793 165.158C236.417 164.81 236.915 164.312 237.287 163.664C237.659 163.016 237.845 162.248 237.845 161.36ZM236.387 161.36C236.387 161.996 236.255 162.536 235.991 162.98C235.739 163.424 235.397 163.76 234.965 163.988C234.545 164.216 234.077 164.33 233.561 164.33C233.141 164.33 232.727 164.216 232.319 163.988C231.911 163.76 231.575 163.424 231.311 162.98C231.047 162.536 230.915 161.996 230.915 161.36C230.915 160.724 231.047 160.184 231.311 159.74C231.575 159.296 231.911 158.96 232.319 158.732C232.727 158.504 233.141 158.39 233.561 158.39C234.077 158.39 234.545 158.504 234.965 158.732C235.397 158.96 235.739 159.296 235.991 159.74C236.255 160.184 236.387 160.724 236.387 161.36ZM240.478 163.07C240.478 162.734 240.556 162.446 240.712 162.206C240.868 161.966 241.102 161.78 241.414 161.648C241.738 161.516 242.14 161.45 242.62 161.45C243.148 161.45 243.622 161.522 244.042 161.666C244.462 161.798 244.876 162.008 245.284 162.296V161.45C245.2 161.342 245.044 161.204 244.816 161.036C244.588 160.856 244.282 160.7 243.898 160.568C243.526 160.424 243.076 160.352 242.548 160.352C241.828 160.352 241.204 160.466 240.676 160.694C240.148 160.91 239.74 161.222 239.452 161.63C239.164 162.038 239.02 162.536 239.02 163.124C239.02 163.688 239.146 164.162 239.398 164.546C239.662 164.918 240.01 165.2 240.442 165.392C240.874 165.584 241.348 165.68 241.864 165.68C242.44 165.68 242.962 165.584 243.43 165.392C243.898 165.188 244.27 164.9 244.546 164.528C244.834 164.144 244.978 163.688 244.978 163.16L244.69 162.26C244.69 162.776 244.582 163.19 244.366 163.502C244.162 163.814 243.874 164.042 243.502 164.186C243.13 164.33 242.704 164.402 242.224 164.402C241.9 164.402 241.606 164.354 241.342 164.258C241.078 164.15 240.868 164 240.712 163.808C240.556 163.604 240.478 163.358 240.478 163.07ZM240.478 159.164C240.61 159.068 240.79 158.954 241.018 158.822C241.258 158.678 241.54 158.558 241.864 158.462C242.188 158.354 242.548 158.3 242.944 158.3C243.4 158.3 243.802 158.408 244.15 158.624C244.51 158.828 244.69 159.14 244.69 159.56V165.5H246.13V159.56C246.13 159.02 245.992 158.564 245.716 158.192C245.452 157.82 245.08 157.538 244.6 157.346C244.132 157.142 243.58 157.04 242.944 157.04C242.2 157.04 241.564 157.154 241.036 157.382C240.508 157.61 240.088 157.838 239.776 158.066L240.478 159.164ZM256.433 165.5H258.053L255.893 156.59L255.083 158.93L256.433 165.5ZM252.113 164.258L252.653 166.058L256.073 159.47L255.893 156.59L252.113 164.258ZM252.653 166.058L253.193 164.258L249.467 156.59L249.287 159.47L252.653 166.058ZM247.307 165.5H248.927L250.277 158.93L249.467 156.59L247.307 165.5ZM267.366 165.5H268.986L266.826 156.59L266.016 158.93L267.366 165.5ZM263.046 164.258L263.586 166.058L267.006 159.47L266.826 156.59L263.046 164.258ZM263.586 166.058L264.126 164.258L260.4 156.59L260.22 159.47L263.586 166.058ZM258.24 165.5H259.86L261.21 158.93L260.4 156.59L258.24 165.5ZM277.904 157.22V165.5H279.344V157.22H277.904ZM270.434 157.22V165.5H271.874V157.22H270.434ZM271.28 161.612H273.854C274.382 161.612 274.778 161.726 275.042 161.954C275.306 162.182 275.438 162.506 275.438 162.926C275.438 163.202 275.378 163.442 275.258 163.646C275.138 163.838 274.958 163.988 274.718 164.096C274.49 164.192 274.202 164.24 273.854 164.24H271.28V165.5H273.854C274.43 165.5 274.946 165.41 275.402 165.23C275.858 165.05 276.218 164.768 276.482 164.384C276.746 164 276.878 163.514 276.878 162.926C276.878 162.038 276.584 161.39 275.996 160.982C275.42 160.562 274.706 160.352 273.854 160.352H271.28V161.612Z" fill="#292929"/>




        </g>
    </symbol>




    <symbol id="sidebar-image_4" viewBox="0 0 254 188">
        <g>
         <path d="M108.664 57.8975C107.314 58.3281 106.309 59.3426 105.888 60.7112C105.783 61.0653 105.754 62.3381 105.754 67.5731V73.9948L105.046 74.0522C104.185 74.1192 103.62 74.3489 103.141 74.8465C102.452 75.5643 102.491 74.7125 102.519 87.3262L102.548 98.667L102.797 99.0498C103.141 99.5666 103.419 99.8155 103.936 100.045C104.366 100.237 104.462 100.246 120.349 100.237C132.762 100.237 136.37 100.217 136.484 100.122C136.896 99.8059 136.934 99.1742 136.618 98.1119C136.274 96.9731 135.183 95.8725 134.015 95.4992C133.709 95.394 133.01 95.327 131.958 95.2983L130.35 95.2408V92.8674V90.4844H135.183H140.006L140.035 94.4848L140.064 98.4756L140.341 98.9828C140.647 99.5283 141.097 99.9207 141.633 100.112C141.892 100.208 142.935 100.237 145.806 100.237C149.462 100.246 149.653 100.237 150.065 100.045C150.581 99.8155 150.859 99.5666 151.204 99.0498L151.452 98.667L151.481 89.8336C151.5 83.6416 151.472 80.8758 151.395 80.6078C151.261 80.091 150.428 79.2489 149.912 79.1053C149.711 79.0479 149.251 79 148.897 79H148.246V70.0709C148.246 62.7018 148.218 61.0748 148.112 60.7112C147.691 59.3235 146.677 58.309 145.289 57.8879C144.667 57.6965 109.266 57.7061 108.664 57.8975ZM145.136 59.7063C145.71 59.9742 146.064 60.3379 146.323 60.9121C146.514 61.3332 146.524 61.4959 146.524 70.1666V79H144.198C141.882 79 141.872 79 141.365 79.2489C140.485 79.6891 140.016 80.5504 140.016 81.718V82.2539H131.068H122.119V79.1532C122.119 77.0955 122.081 75.9567 122.014 75.7461L121.899 75.4399L125.976 71.3533C128.216 69.1139 130.101 67.152 130.149 67.0084C130.369 66.4151 129.766 65.7739 129.134 65.927C128.953 65.9748 127.507 67.353 124.751 70.1092L120.626 74.2149L120.119 74.1192C119.803 74.0617 117.248 74.0235 113.544 74.0235H107.477V67.6783C107.477 61.5151 107.486 61.3332 107.678 60.9121C107.936 60.3379 108.29 59.9742 108.864 59.7063L109.343 59.4766H127H144.657L145.136 59.7063ZM120.148 76.0237L120.397 76.2533V85.7662V95.2696H112.31H104.223V85.7662V76.2533L104.443 76.0619C104.558 75.9567 104.721 75.8418 104.797 75.8131C104.874 75.7844 108.309 75.7653 112.425 75.7748L119.899 75.794L120.148 76.0237ZM149.557 80.9332L149.778 81.1342V88.2067V95.2696H145.758H141.739V88.3311C141.739 82.3879 141.758 81.3447 141.882 81.1055C141.959 80.9619 142.073 80.8184 142.14 80.7897C142.207 80.761 143.854 80.7323 145.796 80.7323C149.299 80.7227 149.337 80.7227 149.557 80.9332ZM140.016 86.3692V88.7617H131.068H122.119V86.3692V83.9766H131.068H140.016V86.3692ZM123.651 92.877V95.2696H122.885H122.119V92.877V90.4844H122.885H123.651V92.877ZM128.627 92.877V95.2696H127H125.373V92.877V90.4844H127H128.627V92.877ZM120.397 97.5186C120.397 97.9588 120.358 98.0928 120.157 98.2842L119.928 98.5235H112.3H104.663L104.443 98.3129C104.261 98.1406 104.223 98.0067 104.223 97.5473V96.9922H112.31H120.397V97.5186ZM133.374 97.1358C133.9 97.2889 134.513 97.7674 134.781 98.2268L134.953 98.5235H128.474C122.617 98.5235 122.005 98.5139 122.062 98.3703C122.091 98.2842 122.119 97.9397 122.119 97.6047V96.9922H127.507C131.986 96.9922 132.982 97.0209 133.374 97.1358ZM149.778 97.5377C149.778 97.9588 149.73 98.1311 149.567 98.3033L149.366 98.5235H145.815C143.174 98.5139 142.227 98.4852 142.112 98.399C141.863 98.2076 141.739 97.8918 141.739 97.4324V96.9922H145.758H149.778V97.5377Z"/>
         <path d="M124.761 61.2566C124.435 61.5916 124.426 62.051 124.742 62.4146L124.971 62.6826H127H129.029L129.259 62.4146C129.575 62.051 129.565 61.5916 129.24 61.2566L128.981 61.0078H127H125.019L124.761 61.2566Z"/>
         <path d="M133.843 66.0704C133.69 66.1661 131.737 68.0706 129.517 70.3005C126.388 73.4587 125.469 74.4253 125.421 74.6646C125.297 75.2675 125.852 75.813 126.445 75.679C126.732 75.612 135.106 67.2667 135.183 66.97C135.259 66.6446 134.991 66.0991 134.704 65.9843C134.34 65.8503 134.168 65.8694 133.843 66.0704Z"/>
         <path d="M109.324 85.728C107.505 87.5368 107.381 87.6899 107.381 88.0153C107.381 88.4938 107.457 88.6469 107.773 88.8096C108.376 89.1254 108.434 89.0872 110.472 87.0583L112.367 85.1729L112.3 84.5987C112.271 84.2829 112.195 83.967 112.147 83.9001C112.089 83.8426 111.869 83.7852 111.659 83.7852C111.276 83.7852 111.219 83.8331 109.324 85.728Z"/>
         <path d="M114.204 85.728C112.319 87.6133 112.262 87.6803 112.262 88.0536C112.262 88.6565 112.769 89.068 113.343 88.9149C113.458 88.8862 114.425 87.9866 115.496 86.9147C117.535 84.8666 117.602 84.7614 117.315 84.235C117.143 83.9096 116.932 83.7948 116.53 83.7852C116.157 83.7852 116.08 83.8522 114.204 85.728Z"/>
         <path d="M145.213 87.3454C144.055 88.4938 143.834 88.7714 143.787 89.0681C143.729 89.3743 143.767 89.4604 144.016 89.7188C144.342 90.0347 144.657 90.0825 145.069 89.872C145.213 89.7954 145.873 89.1733 146.552 88.4938C147.691 87.3263 147.768 87.2306 147.768 86.8669C147.768 86.3597 147.404 85.9864 146.926 85.9864C146.619 85.9864 146.457 86.1108 145.213 87.3454Z"/>
         <path d="M126.512 85.6322C126.091 85.9576 126.053 86.6466 126.436 87.0007C126.723 87.2591 127.307 87.24 127.613 86.9529C128.158 86.4361 127.766 85.5077 127.01 85.5077C126.818 85.5077 126.598 85.5652 126.512 85.6322Z"/>
         <path d="M95.7647 116.9H94.0547L90.2387 125.288L91.1927 125.36L87.4847 116.9H85.5947L89.7527 125.774L88.1327 129.5H89.8427L95.7647 116.9ZM96.3291 125.36C96.3291 124.784 96.4491 124.274 96.6891 123.83C96.9411 123.374 97.2771 123.02 97.6971 122.768C98.1291 122.516 98.6151 122.39 99.1551 122.39C99.5991 122.39 100.013 122.462 100.397 122.606C100.793 122.738 101.135 122.918 101.423 123.146C101.711 123.374 101.915 123.626 102.035 123.902V122.102C101.747 121.766 101.333 121.508 100.793 121.328C100.265 121.136 99.7191 121.04 99.1551 121.04C98.3511 121.04 97.6251 121.226 96.9771 121.598C96.3291 121.97 95.8131 122.48 95.4291 123.128C95.0571 123.776 94.8711 124.52 94.8711 125.36C94.8711 126.188 95.0571 126.932 95.4291 127.592C95.8131 128.24 96.3291 128.75 96.9771 129.122C97.6251 129.494 98.3511 129.68 99.1551 129.68C99.7191 129.68 100.265 129.59 100.793 129.41C101.333 129.218 101.747 128.954 102.035 128.618V126.818C101.915 127.082 101.711 127.334 101.423 127.574C101.135 127.802 100.793 127.988 100.397 128.132C100.013 128.264 99.5991 128.33 99.1551 128.33C98.6151 128.33 98.1291 128.204 97.6971 127.952C97.2771 127.688 96.9411 127.334 96.6891 126.89C96.4491 126.446 96.3291 125.936 96.3291 125.36ZM103.017 121.22V122.57H107.877V121.22H103.017ZM104.727 121.58V129.5H106.167V121.58H104.727ZM110.672 133.46V121.22H109.232V133.46H110.672ZM117.602 125.36C117.602 124.46 117.416 123.692 117.044 123.056C116.672 122.408 116.174 121.91 115.55 121.562C114.938 121.214 114.254 121.04 113.498 121.04C112.814 121.04 112.208 121.214 111.68 121.562C111.164 121.91 110.756 122.408 110.456 123.056C110.168 123.692 110.024 124.46 110.024 125.36C110.024 126.248 110.168 127.016 110.456 127.664C110.756 128.312 111.164 128.81 111.68 129.158C112.208 129.506 112.814 129.68 113.498 129.68C114.254 129.68 114.938 129.506 115.55 129.158C116.174 128.81 116.672 128.312 117.044 127.664C117.416 127.016 117.602 126.248 117.602 125.36ZM116.144 125.36C116.144 125.996 116.012 126.536 115.748 126.98C115.496 127.424 115.154 127.76 114.722 127.988C114.302 128.216 113.834 128.33 113.318 128.33C112.898 128.33 112.484 128.216 112.076 127.988C111.668 127.76 111.332 127.424 111.068 126.98C110.804 126.536 110.672 125.996 110.672 125.36C110.672 124.724 110.804 124.184 111.068 123.74C111.332 123.296 111.668 122.96 112.076 122.732C112.484 122.504 112.898 122.39 113.318 122.39C113.834 122.39 114.302 122.504 114.722 122.732C115.154 122.96 115.496 123.296 115.748 123.74C116.012 124.184 116.144 124.724 116.144 125.36ZM118.867 125.36C118.867 126.188 119.053 126.932 119.425 127.592C119.809 128.24 120.325 128.75 120.973 129.122C121.621 129.494 122.347 129.68 123.151 129.68C123.967 129.68 124.693 129.494 125.329 129.122C125.977 128.75 126.487 128.24 126.859 127.592C127.243 126.932 127.435 126.188 127.435 125.36C127.435 124.52 127.243 123.776 126.859 123.128C126.487 122.48 125.977 121.97 125.329 121.598C124.693 121.226 123.967 121.04 123.151 121.04C122.347 121.04 121.621 121.226 120.973 121.598C120.325 121.97 119.809 122.48 119.425 123.128C119.053 123.776 118.867 124.52 118.867 125.36ZM120.325 125.36C120.325 124.784 120.445 124.274 120.685 123.83C120.937 123.374 121.273 123.02 121.693 122.768C122.125 122.516 122.611 122.39 123.151 122.39C123.691 122.39 124.171 122.516 124.591 122.768C125.023 123.02 125.359 123.374 125.599 123.83C125.851 124.274 125.977 124.784 125.977 125.36C125.977 125.936 125.851 126.446 125.599 126.89C125.359 127.334 125.023 127.688 124.591 127.952C124.171 128.204 123.691 128.33 123.151 128.33C122.611 128.33 122.125 128.204 121.693 127.952C121.273 127.688 120.937 127.334 120.685 126.89C120.445 126.446 120.325 125.936 120.325 125.36ZM136.343 122.66L136.433 120.59L129.593 128.06L129.503 130.13L136.343 122.66ZM130.943 121.22H129.503V130.13L130.943 128.15V121.22ZM136.433 120.59L134.993 122.57V129.5H136.433V120.59ZM130.169 116.99C130.169 117.398 130.271 117.8 130.475 118.196C130.691 118.58 131.009 118.898 131.429 119.15C131.861 119.39 132.389 119.51 133.013 119.51C133.649 119.51 134.177 119.39 134.597 119.15C135.017 118.898 135.329 118.58 135.533 118.196C135.749 117.8 135.857 117.398 135.857 116.99H134.579C134.579 117.146 134.537 117.332 134.453 117.548C134.369 117.752 134.213 117.938 133.985 118.106C133.757 118.262 133.433 118.34 133.013 118.34C132.593 118.34 132.269 118.262 132.041 118.106C131.813 117.938 131.657 117.752 131.573 117.548C131.489 117.332 131.447 117.146 131.447 116.99H130.169ZM139.87 125.36C139.87 124.784 139.99 124.274 140.23 123.83C140.482 123.374 140.818 123.02 141.238 122.768C141.67 122.516 142.156 122.39 142.696 122.39C143.14 122.39 143.554 122.462 143.938 122.606C144.334 122.738 144.676 122.918 144.964 123.146C145.252 123.374 145.456 123.626 145.576 123.902V122.102C145.288 121.766 144.874 121.508 144.334 121.328C143.806 121.136 143.26 121.04 142.696 121.04C141.892 121.04 141.166 121.226 140.518 121.598C139.87 121.97 139.354 122.48 138.97 123.128C138.598 123.776 138.412 124.52 138.412 125.36C138.412 126.188 138.598 126.932 138.97 127.592C139.354 128.24 139.87 128.75 140.518 129.122C141.166 129.494 141.892 129.68 142.696 129.68C143.26 129.68 143.806 129.59 144.334 129.41C144.874 129.218 145.288 128.954 145.576 128.618V126.818C145.456 127.082 145.252 127.334 144.964 127.574C144.676 127.802 144.334 127.988 143.938 128.132C143.554 128.264 143.14 128.33 142.696 128.33C142.156 128.33 141.67 128.204 141.238 127.952C140.818 127.688 140.482 127.334 140.23 126.89C139.99 126.446 139.87 125.936 139.87 125.36ZM146.558 121.22V122.57H151.418V121.22H146.558ZM148.268 121.58V129.5H149.708V121.58H148.268ZM153.709 125.18V125.936H156.103C156.379 125.936 156.613 125.966 156.805 126.026C157.009 126.074 157.171 126.152 157.291 126.26C157.423 126.368 157.519 126.488 157.579 126.62C157.651 126.752 157.687 126.902 157.687 127.07C157.687 127.394 157.555 127.67 157.291 127.898C157.039 128.126 156.643 128.24 156.103 128.24H153.709V129.5H156.463C157.411 129.5 158.089 129.284 158.497 128.852C158.917 128.408 159.127 127.874 159.127 127.25C159.127 126.71 158.995 126.29 158.731 125.99C158.467 125.69 158.107 125.48 157.651 125.36C157.195 125.24 156.679 125.18 156.103 125.18H153.709ZM153.709 125.54H155.923C156.439 125.54 156.907 125.468 157.327 125.324C157.759 125.168 158.107 124.94 158.371 124.64C158.635 124.328 158.767 123.938 158.767 123.47C158.767 122.93 158.635 122.498 158.371 122.174C158.107 121.838 157.759 121.598 157.327 121.454C156.907 121.298 156.439 121.22 155.923 121.22H153.709V122.48H155.923C156.355 122.48 156.697 122.582 156.949 122.786C157.201 122.978 157.327 123.236 157.327 123.56C157.327 123.716 157.291 123.866 157.219 124.01C157.159 124.142 157.069 124.262 156.949 124.37C156.829 124.478 156.679 124.562 156.499 124.622C156.331 124.67 156.139 124.694 155.923 124.694H153.709V125.54ZM152.863 121.22V129.5H154.303V121.22H152.863ZM161.667 127.07C161.667 126.734 161.745 126.446 161.901 126.206C162.057 125.966 162.291 125.78 162.603 125.648C162.927 125.516 163.329 125.45 163.809 125.45C164.337 125.45 164.811 125.522 165.231 125.666C165.651 125.798 166.065 126.008 166.473 126.296V125.45C166.389 125.342 166.233 125.204 166.005 125.036C165.777 124.856 165.471 124.7 165.087 124.568C164.715 124.424 164.265 124.352 163.737 124.352C163.017 124.352 162.393 124.466 161.865 124.694C161.337 124.91 160.929 125.222 160.641 125.63C160.353 126.038 160.209 126.536 160.209 127.124C160.209 127.688 160.335 128.162 160.587 128.546C160.851 128.918 161.199 129.2 161.631 129.392C162.063 129.584 162.537 129.68 163.053 129.68C163.629 129.68 164.151 129.584 164.619 129.392C165.087 129.188 165.459 128.9 165.735 128.528C166.023 128.144 166.167 127.688 166.167 127.16L165.879 126.26C165.879 126.776 165.771 127.19 165.555 127.502C165.351 127.814 165.063 128.042 164.691 128.186C164.319 128.33 163.893 128.402 163.413 128.402C163.089 128.402 162.795 128.354 162.531 128.258C162.267 128.15 162.057 128 161.901 127.808C161.745 127.604 161.667 127.358 161.667 127.07ZM161.667 123.164C161.799 123.068 161.979 122.954 162.207 122.822C162.447 122.678 162.729 122.558 163.053 122.462C163.377 122.354 163.737 122.3 164.133 122.3C164.589 122.3 164.991 122.408 165.339 122.624C165.699 122.828 165.879 123.14 165.879 123.56V129.5H167.319V123.56C167.319 123.02 167.181 122.564 166.905 122.192C166.641 121.82 166.269 121.538 165.789 121.346C165.321 121.142 164.769 121.04 164.133 121.04C163.389 121.04 162.753 121.154 162.225 121.382C161.697 121.61 161.277 121.838 160.965 122.066L161.667 123.164Z"/>
      </g> 
    </symbol>
</svg>
