<svg width="101" height="100" fill="none" xmlns="http://www.w3.org/2000/svg"><path fill-rule="evenodd" clip-rule="evenodd" d="M61.409 22.4c-1.509 0-2.728-1.194-2.728-2.67s1.219-2.668 2.728-2.668c1.508 0 2.727 1.19 2.727 2.668 0 1.476-1.219 2.67-2.727 2.67zm-21.818 0c-1.508 0-2.727-1.194-2.727-2.67s1.219-2.668 2.727-2.668c1.509 0 2.728 1.19 2.728 2.668 0 1.476-1.219 2.67-2.728 2.67zM63.02 11.703l1.017-1.505 1.017-1.481 2.265-3.333a.872.872 0 00-.255-1.233.906.906 0 00-1.253.25l-3.458 5.067-1.038 1.526A30.438 30.438 0 0050.5 9.046a30.46 30.46 0 00-10.815 1.948l-1.033-1.526-1.02-1.499L35.2 4.4a.931.931 0 00-1.265-.249.876.876 0 00-.388.91.882.882 0 00.133.323l2.267 3.333 1.015 1.481 1.02 1.505c-7.713 3.52-12.934 10.19-12.934 17.823H75.95c0-7.632-5.219-14.302-12.93-17.825l-.001.002zM25.439 33.085h-.39v39.173c0 3.11 2.579 5.643 5.76 5.643h4.154c-.147.48-.222.98-.221 1.481V90.66c0 2.95 2.448 5.34 5.457 5.34 3.01 0 5.457-2.39 5.457-5.34V79.382c0-.517-.084-1.012-.22-1.481h10.129c-.143.48-.215.98-.215 1.481V90.66c0 2.95 2.441 5.34 5.451 5.34 3.015 0 5.463-2.39 5.463-5.34V79.382c0-.517-.084-1.012-.227-1.481h4.16c3.181 0 5.754-2.53 5.754-5.643V33.085H25.44zm-9.482 0c-3.015 0-5.457 2.39-5.457 5.338v22.855c0 2.947 2.442 5.34 5.457 5.34 3.01 0 5.452-2.393 5.452-5.34V38.423c0-2.948-2.442-5.338-5.452-5.338zm69.092 0c-3.016 0-5.458 2.39-5.458 5.338v22.855c0 2.947 2.442 5.34 5.458 5.34 3.01 0 5.451-2.393 5.451-5.34V38.423c0-2.948-2.442-5.338-5.451-5.338z" fill="#95CF00"/></svg>