<svg width="101" height="100" fill="none" xmlns="http://www.w3.org/2000/svg"><path d="M66.082 1.813c-2.812.562-8.437 4-10.687 6.562-2.688 3-4.5 7.188-4.75 11.125l-.25 3.625h2.312c5.563 0 13.562-6.563 15.5-12.75 1.063-3.375 1.438-9.188.625-9.063-.313.063-1.5.25-2.75.5z" fill="#292929"/><path d="M29.145 22.875c-5.75 2.063-10.063 5.875-12.625 11.188-2.875 5.937-3.125 7.187-3.063 14.624.125 10.813 2.813 19.376 9.313 29.5 6.812 10.626 12.812 13.25 21.687 9.563 5.188-2.188 11.313-2.313 15.75-.313 4.437 2 9.5 2.376 12.5.938 2.5-1.188 6-4.375 9.5-8.688 2.125-2.624 7.063-12.124 7.063-13.562 0-.438-.938-1.375-2-2.063-2.938-1.687-6.938-5.874-8.313-8.75-1.688-3.437-1.75-12.124-.063-15.437 1.188-2.5 5.5-7.375 7.563-8.563 1.188-.687 1.063-.875-2.063-3.75-4.5-4.125-8.875-5.687-15.812-5.687-4 0-6.312.375-9.625 1.563-5.563 1.937-7.875 1.937-12.813 0-3.25-1.25-5-1.563-9.312-1.5-2.938.062-6.438.437-7.688.937z" fill="#292929"/></svg>