<svg width="101" height="100" fill="none" xmlns="http://www.w3.org/2000/svg"><g clip-path="url(#clip0_558_2616)"><g clip-path="url(#clip1_558_2616)"><path d="M50.5 100c27.614 0 50-22.386 50-50S78.114 0 50.5 0 .5 22.386.5 50s22.386 50 50 50z" fill="#fff"/><path d="M73.481 19.223h-3.036L50.59 47.915h-.181L30.602 19.223H27.52L48.913 50.09 27.61 80.777h3.037l19.717-28.601h.181l19.718 28.601h3.082L52.04 50.091l21.44-30.868z" fill="url(#paint0_linear_558_2616)"/></g></g><defs><clipPath id="clip0_558_2616"><path fill="#fff" transform="translate(.5)" d="M0 0h100v100H0z"/></clipPath><clipPath id="clip1_558_2616"><path fill="#fff" transform="translate(.5)" d="M0 0h100v100H0z"/></clipPath><linearGradient id="paint0_linear_558_2616" x1="50.5" y1="19.223" x2="50.5" y2="80.777" gradientUnits="userSpaceOnUse"><stop stop-color="#58B0E3"/><stop offset="1" stop-color="#F44E28"/></linearGradient></defs></svg>