<svg width="100" height="100" fill="none" xmlns="http://www.w3.org/2000/svg"><g clip-path="url(#clip0_558_1001)" fill="#0077DB"><path d="M94.38.68c-.12.1-6.22.98-18.18 2.62-2.04.28-5.28.72-7.2.98-1.92.28-5.2.72-7.3 1.02-2.08.28-5.32.74-7.2 1-1.86.26-5.26.72-7.54 1.04l-4.16.56v38.7h53.6V.6h-.96c-.54 0-1.02.04-1.06.08zM36.702 8.74c-.32.04-2.22.3-4.2.58-7.64 1.08-10.54 1.48-14.3 1.98-3.74.5-6.04.82-14.64 2.04l-3.96.56v32.7h38.4v-19c0-17.98-.02-19-.34-18.98-.2.02-.62.08-.96.12zm-37.1 59.02V84.1l3.96.56c7.42 1.06 10.74 1.52 14.54 2.04 5.82.78 10.86 1.48 14.6 2 1.88.26 3.82.54 4.36.6l.94.12V51.4h-38.4v16.36zM42.8 70.74V90.1l4.16.56c2.28.32 5.68.78 7.54 1.04 1.88.26 5.12.72 7.2 1 2.1.28 5.34.74 7.2 1 4.64.64 10.04 1.38 14.6 2 2.1.3 5.34.76 7.2 1.04 1.88.28 3.92.56 4.56.6l1.14.1V51.4H42.8v19.34z"/></g><defs><clipPath id="clip0_558_1001"><path fill="#fff" d="M0 0h100v100H0z"/></clipPath></defs></svg>